<svg width="850" height="871" viewBox="0 0 850 871" fill="none" xmlns="http://www.w3.org/2000/svg">
<g opacity="0.1">
<path opacity="0.0344828" d="M108.402 202.762C112.458 197.929 118.58 194.921 126.658 193.71C134.744 192.497 144.726 193.096 156.38 195.425C179.687 200.084 209.476 211.62 243.735 229.049C312.239 263.899 398.418 322.201 486.016 395.704C573.613 469.207 645.995 543.953 692.211 605.365C715.323 636.077 731.858 663.41 740.493 685.554C744.811 696.627 747.134 706.353 747.343 714.526C747.553 722.692 745.654 729.244 741.598 734.077C737.542 738.911 731.42 741.918 723.342 743.13C715.256 744.343 705.274 743.744 693.62 741.415C670.313 736.756 640.524 725.219 606.265 707.791C537.761 672.941 451.582 614.638 363.984 541.135C276.387 467.632 204.005 392.887 157.79 331.475C134.677 300.763 118.142 273.43 109.507 251.286C105.19 240.213 102.867 230.487 102.657 222.313C102.447 214.148 104.346 207.596 108.402 202.762Z" stroke="black" stroke-opacity="0.72" stroke-width="2"/>
<path opacity="0.0689655" d="M132.76 172.873C137.222 168.412 143.583 165.949 151.736 165.446C159.897 164.943 169.788 166.409 181.195 169.746C204.008 176.418 232.678 190.507 265.288 210.855C330.494 251.543 411.263 317.135 492.121 397.992C572.979 478.85 638.571 559.62 679.258 624.826C699.606 657.436 713.696 686.106 720.368 708.918C723.704 720.325 725.171 730.217 724.667 738.378C724.164 746.53 721.702 752.892 717.24 757.353C712.778 761.815 706.417 764.278 698.264 764.78C690.103 765.284 680.212 763.817 668.805 760.481C645.992 753.809 617.323 739.72 584.713 719.372C519.507 678.684 438.737 613.092 357.879 532.234C277.021 451.377 211.43 370.607 170.742 305.401C150.394 272.791 136.305 244.121 129.632 221.309C126.296 209.902 124.83 200.01 125.333 191.849C125.836 183.697 128.298 177.335 132.76 172.873Z" stroke="black" stroke-opacity="0.72" stroke-width="2"/>
<path opacity="0.103448" d="M159.342 145.207C164.176 141.151 170.728 139.253 178.893 139.462C187.067 139.672 196.793 141.995 207.866 146.313C230.01 154.948 257.342 171.482 288.055 194.595C349.467 240.811 424.212 313.193 497.715 400.79C571.218 488.387 629.521 574.566 664.37 643.07C681.799 677.33 693.336 707.118 697.994 730.425C700.324 742.08 700.923 752.062 699.71 760.147C698.498 768.225 695.491 774.348 690.657 778.404C685.824 782.46 679.271 784.358 671.106 784.149C662.933 783.939 653.206 781.616 642.134 777.298C619.989 768.663 592.657 752.129 561.944 729.016C500.533 682.8 425.787 610.418 352.284 522.821C278.781 435.224 220.479 349.045 185.629 280.541C168.2 246.281 156.663 216.493 152.005 193.185C149.675 181.531 149.077 171.549 150.289 163.463C151.501 155.386 154.508 149.263 159.342 145.207Z" stroke="black" stroke-opacity="0.72" stroke-width="2"/>
<path opacity="0.137931" d="M187.947 119.95C193.115 116.331 199.808 115.011 207.924 115.931C216.048 116.853 225.535 120.014 236.189 125.281C257.496 135.813 283.284 154.667 311.865 180.368C369.015 231.761 437.168 310.381 502.756 404.052C568.345 497.722 618.915 588.654 647.661 659.935C662.038 695.583 670.935 726.264 673.544 749.888C674.849 761.701 674.575 771.697 672.662 779.647C670.751 787.588 667.222 793.425 662.053 797.045C656.884 800.664 650.192 801.984 642.076 801.064C633.952 800.142 624.465 796.981 613.811 791.714C592.503 781.182 566.716 762.328 538.134 736.627C480.984 685.234 412.832 606.613 347.243 512.943C281.655 419.273 231.085 328.34 202.338 257.06C187.962 221.412 179.065 190.731 176.456 167.106C175.151 155.294 175.424 145.298 177.337 137.348C179.248 129.407 182.778 123.569 187.947 119.95Z" stroke="black" stroke-opacity="0.72" stroke-width="2"/>
<path opacity="0.172414" d="M218.356 97.2708C223.82 94.1159 230.602 93.3839 238.607 95.0081C246.62 96.634 255.795 100.611 265.95 106.785C286.258 119.135 310.305 140.164 336.537 168.259C388.99 224.437 450.031 308.698 507.206 407.729C564.382 506.759 606.834 601.753 629.258 675.268C640.473 712.033 646.662 743.372 647.203 767.134C647.473 779.016 646.329 788.95 643.731 796.703C641.135 804.447 637.11 809.955 631.645 813.11C626.181 816.265 619.399 816.997 611.394 815.372C603.381 813.746 594.206 809.77 584.051 803.595C563.743 791.246 539.696 770.216 513.464 742.121C461.011 685.944 399.97 601.682 342.794 502.652C285.619 403.622 243.167 308.628 220.743 235.113C209.528 198.348 203.339 167.008 202.798 143.246C202.528 131.364 203.672 121.43 206.27 113.678C208.866 105.933 212.891 100.426 218.356 97.2708Z" stroke="black" stroke-opacity="0.72" stroke-width="2"/>
<path opacity="0.206897" d="M250.336 77.3147C256.055 74.648 262.875 74.5099 270.708 76.8256C278.549 79.1437 287.342 83.9049 296.92 90.9413C316.075 105.014 338.197 128.059 361.881 158.333C409.238 218.869 462.703 308.13 511.03 411.766C559.356 515.403 593.368 613.735 609.3 688.925C617.267 726.527 620.701 758.287 619.169 782.006C618.403 793.866 616.397 803.662 613.133 811.159C609.872 818.648 605.383 823.783 599.664 826.45C593.945 829.117 587.125 829.255 579.292 826.939C571.451 824.621 562.658 819.86 553.08 812.824C533.925 798.751 511.803 775.706 488.119 745.432C440.762 684.896 387.297 595.635 338.97 491.999C290.644 388.362 256.633 290.03 240.7 214.84C232.733 177.237 229.299 145.478 230.831 121.759C231.598 109.899 233.603 100.102 236.867 92.6059C240.128 85.1171 244.618 79.9813 250.336 77.3147Z" stroke="black" stroke-opacity="0.72" stroke-width="2"/>
<path opacity="0.241379" d="M283.646 60.2082C289.576 58.0501 296.382 58.507 303.983 61.4965C311.592 64.4892 319.937 69.9986 328.865 77.843C346.721 93.5312 366.75 118.417 387.705 150.64C429.606 215.073 475.088 308.654 514.198 416.108C553.309 523.562 578.62 624.484 587.938 700.776C592.599 738.931 593.251 770.868 589.657 794.364C587.86 806.112 585.009 815.696 581.104 822.88C577.203 830.056 572.282 834.781 566.353 836.939C560.424 839.097 553.618 838.64 546.016 835.651C538.407 832.658 530.062 827.148 521.134 819.304C503.279 803.616 483.249 778.73 462.294 746.507C420.393 682.074 374.911 588.493 335.801 481.039C296.691 373.585 271.379 272.663 262.061 196.371C257.401 158.216 256.748 126.279 260.342 102.784C262.139 91.0355 264.99 81.4508 268.896 74.2674C272.797 67.0913 277.717 62.3663 283.646 60.2082Z" stroke="black" stroke-opacity="0.72" stroke-width="2"/>
<path opacity="0.275862" d="M318.033 46.0607C324.128 44.4276 330.868 45.4759 338.18 49.1166C345.499 52.761 353.332 58.9768 361.543 67.5695C377.963 84.7542 395.747 111.291 413.814 145.218C449.94 213.057 487.093 310.246 516.689 420.7C546.285 531.154 562.704 633.898 565.338 710.712C566.655 749.127 564.522 781.001 558.894 804.093C556.08 815.64 552.404 824.939 547.887 831.755C543.376 838.564 538.062 842.842 531.967 844.475C525.872 846.108 519.132 845.06 511.82 841.419C504.501 837.775 496.668 831.559 488.457 822.966C472.037 805.782 454.253 779.245 436.186 745.318C400.06 677.479 362.907 580.29 333.311 469.836C303.715 359.382 287.296 256.638 284.662 179.824C283.345 141.409 285.478 109.535 291.106 86.4429C293.921 74.8962 297.596 65.5965 302.113 58.7807C306.625 51.9719 311.938 47.6938 318.033 46.0607Z" stroke="black" stroke-opacity="0.72" stroke-width="2"/>
<path opacity="0.310345" d="M353.233 34.9494C359.447 33.8537 366.071 35.4855 373.037 39.7496C380.011 44.0181 387.272 50.8929 394.703 60.1685C409.563 78.7189 424.966 106.704 440.008 142.077C470.084 212.807 498.625 312.864 518.481 425.477C538.338 538.09 545.74 641.875 541.669 718.626C539.633 757.009 534.73 788.576 527.11 811.09C523.301 822.347 518.828 831.291 513.735 837.687C508.647 844.077 502.981 847.876 496.767 848.971C490.553 850.067 483.93 848.435 476.963 844.171C469.989 839.903 462.728 833.028 455.297 823.752C440.437 805.202 425.034 777.216 409.992 741.844C379.916 671.114 351.375 571.057 331.519 458.444C311.662 345.831 304.26 242.046 308.331 165.295C310.367 126.911 315.27 95.3452 322.89 72.8311C326.699 61.5736 331.172 52.6297 336.265 46.2335C341.353 39.8438 347.019 36.0451 353.233 34.9494Z" stroke="black" stroke-opacity="0.72" stroke-width="2"/>
<path opacity="0.344828" d="M388.98 26.9357C395.266 26.3857 401.722 28.5886 408.29 33.4436C414.865 38.3037 421.5 45.7853 428.094 55.6731C441.281 75.4481 454.186 104.67 466.088 141.218C489.885 214.301 509.596 316.465 519.563 430.38C529.529 544.295 527.857 648.329 517.112 724.434C511.739 762.494 504.103 793.512 494.551 815.277C489.774 826.159 484.539 834.68 478.908 840.607C473.282 846.529 467.307 849.82 461.021 850.37C454.735 850.92 448.279 848.717 441.711 843.862C435.135 839.002 428.501 831.52 421.907 821.632C408.72 801.857 395.814 772.636 383.913 736.087C360.116 663.005 340.405 560.841 330.438 446.926C320.472 333.011 322.144 228.976 332.889 152.872C338.262 114.812 345.898 83.793 355.45 62.0286C360.227 51.146 365.462 42.626 371.093 36.698C376.719 30.7761 382.694 27.4856 388.98 26.9357Z" stroke="black" stroke-opacity="0.72" stroke-width="2"/>
<path opacity="0.37931" d="M425.001 22.0541C431.31 22.0541 437.55 24.8113 443.67 30.2203C449.797 35.6349 455.754 43.6663 461.461 54.0912C472.874 74.9402 483.184 105.175 491.854 142.622C509.191 217.5 519.924 320.994 519.924 435.344C519.924 549.694 509.191 653.187 491.854 728.065C483.184 765.512 472.874 795.748 461.461 816.596C455.754 827.021 449.797 835.053 443.67 840.467C437.55 845.876 431.31 848.634 425.001 848.634C418.691 848.634 412.451 845.876 406.331 840.467C400.204 835.053 394.247 827.021 388.54 816.596C377.127 795.748 366.817 765.512 358.147 728.065C340.81 653.187 330.077 549.694 330.077 435.344C330.077 320.994 340.81 217.5 358.147 142.622C366.817 105.175 377.127 74.9402 388.54 54.0912C394.247 43.6663 400.204 35.6349 406.331 30.2203C412.451 24.8113 418.691 22.0541 425.001 22.0541Z" stroke="black" stroke-opacity="0.72" stroke-width="2"/>
<path opacity="0.413793" d="M461.021 20.3182C467.306 20.8682 473.282 24.1586 478.908 30.0805C484.539 36.0085 489.774 44.5285 494.55 55.4112C504.103 77.1755 511.738 108.194 517.112 146.254C527.857 222.359 529.529 326.393 519.562 440.308C509.596 554.223 489.884 656.387 466.087 729.47C454.186 766.018 441.28 795.24 428.094 815.015C421.5 824.903 414.865 832.384 408.29 837.244C401.721 842.099 395.265 844.302 388.979 843.752C382.694 843.202 376.718 839.912 371.093 833.99C365.461 828.062 360.226 819.542 355.45 808.659C345.897 786.895 338.262 755.876 332.888 717.816C322.143 641.712 320.472 537.677 330.438 423.762C340.404 309.847 360.116 207.683 383.913 134.601C395.814 98.0521 408.72 68.8306 421.907 49.0557C428.5 39.1678 435.135 31.6862 441.71 26.8262C448.279 21.9711 454.735 19.7683 461.021 20.3182Z" stroke="black" stroke-opacity="0.72" stroke-width="2"/>
<path opacity="0.448276" d="M496.768 21.7164C502.982 22.8121 508.647 26.6108 513.736 33.0005C518.829 39.3967 523.301 48.3406 527.111 59.5981C534.73 82.1122 539.633 113.678 541.669 152.062C545.74 228.813 538.338 332.598 518.482 445.211C498.625 557.824 470.084 657.881 440.008 728.611C424.967 763.983 409.563 791.969 394.703 810.519C387.273 819.795 380.011 826.67 373.038 830.938C366.071 835.202 359.447 836.834 353.233 835.738C347.019 834.643 341.354 830.844 336.265 824.454C331.172 818.058 326.7 809.114 322.89 797.857C315.271 775.342 310.368 743.776 308.332 705.393C304.261 628.642 311.663 524.857 331.519 412.244C351.376 299.631 379.917 199.574 409.993 128.844C425.034 93.4713 440.438 65.4859 455.298 46.9355C462.728 37.6599 469.99 30.785 476.963 26.5166C483.93 22.2524 490.554 20.6207 496.768 21.7164Z" stroke="black" stroke-opacity="0.72" stroke-width="2"/>
<path opacity="0.482759" d="M531.967 26.2138C538.062 27.8469 543.376 32.1251 547.887 38.9338C552.404 45.7496 556.08 55.0493 558.894 66.596C564.522 89.6885 566.655 121.562 565.338 159.977C562.704 236.791 546.285 339.535 516.689 449.989C487.093 560.443 449.94 657.632 413.814 725.471C395.747 759.398 377.963 785.935 361.543 803.12C353.332 811.712 345.499 817.928 338.18 821.572C330.868 825.213 324.128 826.261 318.033 824.628C311.938 822.995 306.625 818.717 302.113 811.908C297.596 805.093 293.921 795.793 291.106 784.246C285.478 761.154 283.345 729.28 284.662 690.865C287.296 614.051 303.715 511.307 333.311 400.853C362.907 290.399 400.06 193.21 436.186 125.371C454.253 91.4437 472.037 64.9073 488.457 47.7226C496.668 39.1299 504.501 32.9141 511.82 29.2697C519.132 25.629 525.872 24.5807 531.967 26.2138Z" stroke="black" stroke-opacity="0.72" stroke-width="2"/>
<path opacity="0.517241" d="M566.353 33.7475C572.283 35.9056 577.203 40.6305 581.104 47.8066C585.009 54.9901 587.861 64.5747 589.658 76.3227C593.252 99.8179 592.599 131.756 587.939 169.91C578.62 246.202 553.309 347.124 514.199 454.578C475.089 562.033 429.607 655.614 387.705 720.046C366.75 752.27 346.721 777.155 328.866 792.843C319.937 800.688 311.592 806.197 303.983 809.19C296.382 812.179 289.576 812.636 283.647 810.478C277.717 808.32 272.797 803.595 268.896 796.419C264.991 789.235 262.139 779.651 260.342 767.903C256.748 744.408 257.401 712.47 262.061 674.316C271.38 598.024 296.691 497.101 335.801 389.647C374.911 282.193 420.393 188.612 462.295 124.179C483.25 91.9559 503.279 67.0704 521.134 51.3823C530.062 43.5379 538.408 38.0284 546.017 35.0358C553.618 32.0462 560.424 31.5894 566.353 33.7475Z" stroke="black" stroke-opacity="0.72" stroke-width="2"/>
<path opacity="0.551724" d="M599.664 44.2381C605.383 46.9048 609.872 52.0406 613.133 59.5294C616.397 67.0259 618.403 76.8225 619.169 88.6825C620.701 112.401 617.267 144.161 609.3 181.764C593.368 256.953 559.356 355.286 511.03 458.922C462.703 562.559 409.238 651.82 361.881 712.355C338.197 742.63 316.075 765.675 296.92 779.747C287.342 786.783 278.549 791.545 270.708 793.863C262.875 796.178 256.055 796.04 250.336 793.374C244.618 790.707 240.128 785.571 236.867 778.082C233.603 770.586 231.598 760.789 230.831 748.929C229.299 725.21 232.733 693.451 240.7 655.848C256.633 580.658 290.644 482.326 338.97 378.689C387.297 275.053 440.762 185.792 488.119 125.256C511.803 94.9821 533.925 71.937 553.08 57.8647C562.658 50.8283 571.451 46.0672 579.292 43.7491C587.125 41.4333 593.945 41.5715 599.664 44.2381Z" stroke="black" stroke-opacity="0.72" stroke-width="2"/>
<path opacity="0.586207" d="M631.645 57.5784C637.11 60.7333 641.135 66.2408 643.73 73.9854C646.329 81.7378 647.472 91.672 647.202 103.554C646.662 127.316 640.473 158.655 629.258 195.42C606.833 268.935 564.381 363.929 507.206 462.959C450.031 561.99 388.99 646.251 336.537 702.429C310.304 730.524 286.258 751.553 265.95 763.903C255.795 770.077 246.62 774.054 238.607 775.68C230.602 777.304 223.82 776.572 218.355 773.417C212.891 770.262 208.866 764.755 206.27 757.01C203.671 749.258 202.528 739.324 202.798 727.442C203.339 703.68 209.528 672.34 220.742 635.575C243.167 562.06 285.619 467.066 342.794 368.036C399.969 269.006 461.01 184.744 513.464 128.567C539.696 100.472 563.742 79.4423 584.051 67.0931C594.205 60.9182 603.38 56.9416 611.393 55.3157C619.398 53.6914 626.181 54.4235 631.645 57.5784Z" stroke="black" stroke-opacity="0.72" stroke-width="2"/>
<path opacity="0.62069" d="M662.053 73.6436C667.222 77.2628 670.751 83.1002 672.662 91.0415C674.575 98.9909 674.849 108.987 673.544 120.8C670.934 144.425 662.038 175.105 647.661 210.753C618.915 282.034 568.345 372.966 502.756 466.637C437.168 560.307 369.015 638.928 311.865 690.32C283.284 716.022 257.496 734.875 236.189 745.408C225.535 750.674 216.048 753.836 207.924 754.757C199.808 755.677 193.115 754.357 187.946 750.738C182.778 747.119 179.248 741.281 177.337 733.34C175.424 725.391 175.15 715.395 176.455 703.582C179.065 679.957 187.962 649.276 202.338 613.628C231.085 542.348 281.654 451.415 347.243 357.745C412.831 264.075 480.984 185.454 538.134 134.062C566.715 108.36 592.503 89.5062 613.81 78.974C624.465 73.7076 633.951 70.5458 642.076 69.6245C650.191 68.7041 656.884 70.0244 662.053 73.6436Z" stroke="black" stroke-opacity="0.72" stroke-width="2"/>
<path opacity="0.655172" d="M690.657 92.2837C695.491 96.3396 698.498 102.462 699.71 110.54C700.923 118.626 700.324 128.608 697.995 140.262C693.336 163.569 681.799 193.358 664.37 227.617C629.521 296.121 571.218 382.3 497.715 469.898C424.212 557.495 349.467 629.877 288.055 676.092C257.343 699.205 230.01 715.74 207.866 724.375C196.793 728.693 187.067 731.015 178.893 731.225C170.728 731.435 164.176 729.536 159.342 725.48C154.508 721.424 151.501 715.302 150.289 707.224C149.077 699.138 149.675 689.156 152.005 677.502C156.663 654.195 168.2 624.406 185.629 590.147C220.479 521.643 278.781 435.464 352.284 347.866C425.787 260.269 500.533 187.887 561.944 141.671C592.657 118.559 619.989 102.024 642.134 93.3891C653.206 89.0714 662.933 86.7484 671.106 86.5387C679.272 86.3292 685.824 88.2278 690.657 92.2837Z" stroke="black" stroke-opacity="0.72" stroke-width="2"/>
<path opacity="0.689655" d="M717.24 113.335C721.702 117.796 724.164 124.158 724.667 132.311C725.17 140.471 723.704 150.363 720.368 161.77C713.695 184.583 699.606 213.252 679.258 245.862C638.57 311.068 572.979 391.838 492.121 472.696C411.263 553.553 330.493 619.145 265.287 659.833C232.677 680.181 204.008 694.27 181.195 700.943C169.788 704.279 159.896 705.745 151.736 705.242C143.583 704.739 137.222 702.276 132.76 697.815C128.298 693.353 125.836 686.991 125.333 678.839C124.829 670.678 126.296 660.786 129.632 649.38C136.304 626.567 150.393 597.897 170.742 565.287C211.429 500.081 277.021 419.312 357.879 338.454C438.737 257.596 519.506 192.004 584.712 151.317C617.322 130.968 645.992 116.879 668.805 110.207C680.211 106.871 690.103 105.404 698.264 105.908C706.416 106.411 712.778 108.873 717.24 113.335Z" stroke="black" stroke-opacity="0.72" stroke-width="2"/>
<path opacity="0.724138" d="M741.599 136.61C745.654 141.443 747.553 147.995 747.344 156.16C747.134 164.334 744.811 174.06 740.493 185.133C731.858 207.277 715.324 234.61 692.211 265.322C645.995 326.734 573.613 401.48 486.016 474.983C398.418 548.485 312.239 606.788 243.735 641.638C209.476 659.066 179.688 670.603 156.38 675.262C144.726 677.591 134.744 678.19 126.658 676.977C118.581 675.766 112.458 672.758 108.402 667.925C104.346 663.091 102.447 656.539 102.657 648.374C102.867 640.2 105.19 630.474 109.507 619.401C118.142 597.257 134.677 569.924 157.79 539.212C204.006 477.8 276.387 403.054 363.985 329.552C451.582 256.049 537.761 197.746 606.265 162.896C640.524 145.468 670.313 133.931 693.62 129.272C705.275 126.943 715.256 126.344 723.342 127.557C731.42 128.768 737.543 131.776 741.599 136.61Z" stroke="black" stroke-opacity="0.72" stroke-width="2"/>
<path opacity="0.758621" d="M763.547 161.906C767.166 167.074 768.487 173.767 767.566 181.883C766.645 190.007 763.483 199.494 758.217 210.148C747.684 231.456 728.831 257.243 703.129 285.824C651.737 342.974 573.116 411.127 479.446 476.715C385.776 542.304 294.843 592.874 223.562 621.62C187.914 635.997 157.234 644.894 133.609 647.503C121.796 648.808 111.8 648.534 103.851 646.621C95.9094 644.71 90.072 641.181 86.4528 636.012C82.8336 630.843 81.5133 624.151 82.4337 616.035C83.355 607.911 86.5168 598.424 91.7832 587.77C102.315 566.462 121.169 540.675 146.871 512.094C198.263 454.944 276.884 386.791 370.554 321.202C464.224 255.614 555.157 205.044 626.438 176.297C662.086 161.921 692.766 153.024 716.391 150.415C728.204 149.11 738.2 149.383 746.149 151.296C754.091 153.207 759.928 156.737 763.547 161.906Z" stroke="black" stroke-opacity="0.72" stroke-width="2"/>
<path opacity="0.793103" d="M782.919 189.007C786.074 194.471 786.806 201.253 785.182 209.258C783.556 217.271 779.58 226.446 773.405 236.601C761.056 256.909 740.026 280.955 711.931 307.188C655.753 359.641 571.492 420.682 472.462 477.857C373.432 535.033 278.438 577.485 204.923 599.909C168.157 611.124 136.818 617.313 113.056 617.853C101.174 618.124 91.2401 616.98 83.4876 614.382C75.7431 611.786 70.2356 607.761 67.0806 602.296C63.9257 596.832 63.1937 590.05 64.8179 582.045C66.4438 574.032 70.4204 564.857 76.5953 554.702C88.9446 534.393 109.974 510.347 138.069 484.115C194.247 431.662 278.508 370.62 377.538 313.445C476.569 256.27 571.562 213.818 645.077 191.394C681.843 180.179 713.182 173.99 736.944 173.449C748.826 173.179 758.76 174.323 766.512 176.921C774.257 179.517 779.765 183.542 782.919 189.007Z" stroke="black" stroke-opacity="0.72" stroke-width="2"/>
<path opacity="0.827586" d="M799.568 217.68C802.235 223.398 802.373 230.218 800.057 238.051C797.739 245.892 792.978 254.686 785.941 264.263C771.869 283.418 748.824 305.54 718.55 329.224C658.014 376.582 568.753 430.047 465.117 478.373C361.48 526.7 263.148 560.711 187.958 576.643C150.355 584.611 118.596 588.045 94.877 586.512C83.017 585.746 73.2203 583.741 65.7238 580.476C58.235 577.216 53.0992 572.726 50.4326 567.007C47.7659 561.288 47.6278 554.468 49.9435 546.635C52.2616 538.795 57.0228 530.001 64.0592 520.423C78.1314 501.268 101.177 479.146 131.451 455.463C191.987 408.105 281.247 354.64 384.884 306.314C488.52 257.987 586.853 223.976 662.042 208.044C699.645 200.076 731.405 196.642 755.124 198.175C766.984 198.941 776.78 200.946 784.277 204.21C791.766 207.471 796.901 211.961 799.568 217.68Z" stroke="black" stroke-opacity="0.72" stroke-width="2"/>
<path opacity="0.862069" d="M813.365 247.683C815.523 253.612 815.066 260.418 812.076 268.019C809.084 275.628 803.574 283.973 795.73 292.902C780.042 310.757 755.156 330.786 722.933 351.741C658.5 393.643 564.919 439.125 457.465 478.235C350.011 517.345 249.089 542.656 172.797 551.975C134.642 556.635 102.705 557.288 79.2094 553.694C67.4613 551.897 57.8767 549.045 50.6933 545.14C43.5172 541.239 38.7922 536.319 36.6341 530.389C34.476 524.46 34.9329 517.654 37.9224 510.053C40.9151 502.444 46.4245 494.098 54.2689 485.17C69.9571 467.315 94.8426 447.286 127.066 426.331C191.499 384.429 285.08 338.947 392.534 299.837C499.988 260.727 600.91 235.416 677.202 226.097C715.357 221.437 747.294 220.784 770.789 224.378C782.538 226.175 792.122 229.027 799.306 232.932C806.482 236.833 811.207 241.753 813.365 247.683Z" stroke="black" stroke-opacity="0.72" stroke-width="2"/>
<path opacity="0.896552" d="M824.207 278.761C825.84 284.856 824.792 291.597 821.151 298.908C817.507 306.227 811.291 314.061 802.698 322.271C785.514 338.691 758.977 356.475 725.05 374.542C657.211 410.669 560.022 447.821 449.568 477.417C339.114 507.013 236.37 523.433 159.556 526.066C121.141 527.383 89.2674 525.25 66.1749 519.622C54.6281 516.808 45.3285 513.132 38.5127 508.616C31.704 504.104 27.4258 498.791 25.7927 492.696C24.1596 486.601 25.2079 479.86 28.8486 472.549C32.493 465.229 38.7088 457.396 47.3015 449.186C64.4862 432.765 91.0226 414.981 124.95 396.914C192.789 360.788 289.978 323.635 400.432 294.039C510.886 264.443 613.63 248.024 690.444 245.391C728.859 244.074 760.733 246.207 783.825 251.835C795.372 254.649 804.671 258.325 811.487 262.841C818.296 267.353 822.574 272.666 824.207 278.761Z" stroke="black" stroke-opacity="0.72" stroke-width="2"/>
<path opacity="0.931035" d="M832.011 310.653C833.107 316.867 831.475 323.491 827.211 330.458C822.943 337.431 816.068 344.693 806.792 352.123C788.242 366.983 760.256 382.387 724.884 397.428C654.154 427.504 554.097 456.045 441.484 475.902C328.871 495.758 225.086 503.16 148.335 499.089C109.951 497.053 78.3852 492.15 55.8711 484.531C44.6136 480.721 35.6697 476.249 29.2735 471.155C22.8838 466.067 19.0851 460.401 17.9894 454.187C16.8937 447.973 18.5255 441.35 22.7896 434.383C27.058 427.41 33.9329 420.148 43.2085 412.718C61.7589 397.858 89.7443 382.454 125.117 367.413C195.847 337.337 295.904 308.796 408.517 288.939C521.13 269.082 624.915 261.68 701.666 265.752C740.049 267.788 771.615 272.691 794.13 280.31C805.387 284.12 814.331 288.592 820.727 293.685C827.117 298.773 830.916 304.439 832.011 310.653Z" stroke="black" stroke-opacity="0.72" stroke-width="2"/>
<path opacity="0.965517" d="M836.717 343.093C837.267 349.379 835.064 355.835 830.209 362.404C825.349 368.979 817.868 375.614 807.98 382.207C788.205 395.394 758.983 408.3 722.435 420.201C649.352 443.998 547.188 463.71 433.273 473.676C319.358 483.642 215.324 481.971 139.219 471.226C101.159 465.852 70.1405 458.216 48.3762 448.664C37.4935 443.887 28.9735 438.653 23.0455 433.021C17.1237 427.396 13.8332 421.42 13.2832 415.134C12.7333 408.848 14.9361 402.392 19.7912 395.824C24.6512 389.249 32.1328 382.614 42.0207 376.02C61.7956 362.834 91.0171 349.928 127.566 338.027C200.648 314.229 302.812 294.518 416.727 284.552C530.642 274.585 634.677 276.257 710.781 287.002C748.841 292.376 779.86 300.011 801.624 309.564C812.507 314.34 821.027 319.575 826.955 325.206C832.877 330.832 836.167 336.807 836.717 343.093Z" stroke="black" stroke-opacity="0.72" stroke-width="2"/>
<path d="M838.29 375.805C838.29 382.115 835.533 388.355 830.124 394.475C824.71 400.602 816.678 406.559 806.253 412.266C785.404 423.679 755.169 433.989 717.722 442.659C642.844 459.996 539.351 470.729 425.001 470.729C310.65 470.729 207.157 459.996 132.279 442.659C94.8321 433.989 64.597 423.679 43.7481 412.266C33.3231 406.559 25.2917 400.602 19.8771 394.475C14.4681 388.355 11.7109 382.115 11.7109 375.805C11.7109 369.496 14.4681 363.256 19.8771 357.136C25.2917 351.009 33.3231 345.052 43.7481 339.345C64.597 327.932 94.8321 317.622 132.279 308.952C207.157 291.615 310.65 280.882 425.001 280.882C539.351 280.882 642.844 291.615 717.722 308.952C755.169 317.622 785.404 327.932 806.253 339.345C816.678 345.052 824.71 351.009 830.124 357.136C835.533 363.256 838.29 369.496 838.29 375.805Z" stroke="black" stroke-opacity="0.72" stroke-width="2"/>
</g>
</svg>
