<svg width="815" height="871" viewBox="0 0 815 871" fill="none" xmlns="http://www.w3.org/2000/svg">
<g opacity="0.1">
<path opacity="0.0344828" d="M73.4018 202.762C77.4577 197.929 83.5805 194.921 91.6581 193.71C99.744 192.497 109.726 193.096 121.38 195.425C144.687 200.084 174.476 211.62 208.735 229.049C277.239 263.899 363.418 322.201 451.016 395.704C538.613 469.207 610.995 543.953 657.211 605.365C680.323 636.077 696.858 663.41 705.493 685.554C709.811 696.627 712.134 706.353 712.343 714.526C712.553 722.692 710.654 729.244 706.598 734.077C702.542 738.911 696.42 741.918 688.342 743.13C680.256 744.343 670.274 743.744 658.62 741.415C635.313 736.756 605.524 725.219 571.265 707.791C502.761 672.941 416.582 614.638 328.984 541.135C241.387 467.632 169.005 392.887 122.79 331.475C99.6766 300.763 83.1423 273.43 74.5072 251.286C70.1895 240.213 67.8665 230.487 67.6568 222.313C67.4473 214.148 69.3459 207.596 73.4018 202.762Z" stroke="black" stroke-opacity="0.72" stroke-width="2"/>
<path opacity="0.0689655" d="M97.7601 172.873C102.222 168.412 108.583 165.949 116.736 165.446C124.897 164.943 134.788 166.409 146.195 169.746C169.008 176.418 197.678 190.507 230.288 210.855C295.494 251.543 376.263 317.135 457.121 397.992C537.979 478.85 603.571 559.62 644.258 624.826C664.606 657.436 678.696 686.106 685.368 708.918C688.704 720.325 690.171 730.217 689.667 738.378C689.164 746.53 686.702 752.892 682.24 757.353C677.778 761.815 671.417 764.278 663.264 764.78C655.103 765.284 645.212 763.817 633.805 760.481C610.992 753.809 582.323 739.72 549.713 719.372C484.507 678.684 403.737 613.092 322.879 532.234C242.021 451.377 176.43 370.607 135.742 305.401C115.394 272.791 101.305 244.121 94.6323 221.309C91.296 209.902 89.8296 200.01 90.333 191.849C90.8359 183.697 93.2984 177.335 97.7601 172.873Z" stroke="black" stroke-opacity="0.72" stroke-width="2"/>
<path opacity="0.103448" d="M124.342 145.207C129.176 141.151 135.728 139.253 143.893 139.462C152.067 139.672 161.793 141.995 172.866 146.313C195.01 154.948 222.342 171.482 253.055 194.595C314.467 240.811 389.212 313.193 462.715 400.79C536.218 488.387 594.521 574.566 629.37 643.07C646.799 677.33 658.336 707.118 662.994 730.425C665.324 742.08 665.923 752.062 664.71 760.147C663.498 768.225 660.491 774.348 655.657 778.404C650.824 782.46 644.271 784.358 636.106 784.149C627.933 783.939 618.206 781.616 607.134 777.298C584.989 768.663 557.657 752.129 526.944 729.016C465.533 682.8 390.787 610.418 317.284 522.821C243.781 435.224 185.479 349.045 150.629 280.541C133.2 246.281 121.663 216.493 117.005 193.185C114.675 181.531 114.077 171.549 115.289 163.463C116.501 155.386 119.508 149.263 124.342 145.207Z" stroke="black" stroke-opacity="0.72" stroke-width="2"/>
<path opacity="0.137931" d="M152.947 119.95C158.115 116.331 164.808 115.011 172.924 115.931C181.048 116.853 190.535 120.014 201.189 125.281C222.496 135.813 248.284 154.667 276.865 180.368C334.015 231.761 402.168 310.381 467.756 404.052C533.345 497.722 583.915 588.654 612.661 659.935C627.038 695.583 635.935 726.264 638.544 749.888C639.849 761.701 639.575 771.697 637.662 779.647C635.751 787.588 632.222 793.425 627.053 797.045C621.884 800.664 615.192 801.984 607.076 801.064C598.952 800.142 589.465 796.981 578.811 791.714C557.503 781.182 531.716 762.328 503.134 736.627C445.984 685.234 377.832 606.613 312.243 512.943C246.655 419.273 196.085 328.34 167.338 257.06C152.962 221.412 144.065 190.731 141.456 167.106C140.151 155.294 140.424 145.298 142.337 137.348C144.248 129.407 147.778 123.569 152.947 119.95Z" stroke="black" stroke-opacity="0.72" stroke-width="2"/>
<path opacity="0.172414" d="M183.356 97.2708C188.82 94.1159 195.602 93.3839 203.607 95.0081C211.62 96.634 220.795 100.611 230.95 106.785C251.258 119.135 275.305 140.164 301.537 168.259C353.99 224.437 415.031 308.698 472.206 407.729C529.382 506.759 571.834 601.753 594.258 675.268C605.473 712.033 611.662 743.372 612.203 767.134C612.473 779.016 611.329 788.95 608.731 796.703C606.135 804.447 602.11 809.955 596.645 813.11C591.181 816.265 584.399 816.997 576.394 815.372C568.381 813.746 559.206 809.77 549.051 803.595C528.743 791.246 504.696 770.216 478.464 742.121C426.011 685.944 364.97 601.682 307.794 502.652C250.619 403.622 208.167 308.628 185.743 235.113C174.528 198.348 168.339 167.008 167.798 143.246C167.528 131.364 168.672 121.43 171.27 113.678C173.866 105.933 177.891 100.426 183.356 97.2708Z" stroke="black" stroke-opacity="0.72" stroke-width="2"/>
<path opacity="0.206897" d="M215.336 77.3147C221.055 74.648 227.875 74.5099 235.708 76.8256C243.549 79.1437 252.342 83.9049 261.92 90.9413C281.075 105.014 303.197 128.059 326.881 158.333C374.238 218.869 427.703 308.13 476.03 411.766C524.356 515.403 558.368 613.735 574.3 688.925C582.267 726.527 585.701 758.287 584.169 782.006C583.403 793.866 581.397 803.662 578.133 811.159C574.872 818.648 570.383 823.783 564.664 826.45C558.945 829.117 552.125 829.255 544.292 826.939C536.451 824.621 527.658 819.86 518.08 812.824C498.925 798.751 476.803 775.706 453.119 745.432C405.762 684.896 352.297 595.635 303.97 491.999C255.644 388.362 221.633 290.03 205.7 214.84C197.733 177.237 194.299 145.478 195.831 121.759C196.598 109.899 198.603 100.102 201.867 92.6059C205.128 85.1171 209.618 79.9813 215.336 77.3147Z" stroke="black" stroke-opacity="0.72" stroke-width="2"/>
<path opacity="0.241379" d="M248.646 60.2082C254.576 58.0501 261.382 58.507 268.983 61.4965C276.592 64.4892 284.937 69.9986 293.865 77.843C311.721 93.5312 331.75 118.417 352.705 150.64C394.606 215.073 440.088 308.654 479.198 416.108C518.309 523.562 543.62 624.484 552.938 700.776C557.599 738.931 558.251 770.868 554.657 794.364C552.86 806.112 550.009 815.696 546.104 822.88C542.203 830.056 537.282 834.781 531.353 836.939C525.424 839.097 518.618 838.64 511.016 835.651C503.407 832.658 495.062 827.148 486.134 819.304C468.279 803.616 448.249 778.73 427.294 746.507C385.393 682.074 339.911 588.493 300.801 481.039C261.691 373.585 236.379 272.663 227.061 196.371C222.401 158.216 221.748 126.279 225.342 102.784C227.139 91.0355 229.99 81.4508 233.896 74.2674C237.797 67.0913 242.717 62.3663 248.646 60.2082Z" stroke="black" stroke-opacity="0.72" stroke-width="2"/>
<path opacity="0.275862" d="M283.033 46.0607C289.128 44.4276 295.868 45.4759 303.18 49.1166C310.499 52.761 318.332 58.9768 326.543 67.5695C342.963 84.7542 360.747 111.291 378.814 145.218C414.94 213.057 452.093 310.246 481.689 420.7C511.285 531.154 527.704 633.898 530.338 710.712C531.655 749.127 529.522 781.001 523.894 804.093C521.08 815.64 517.404 824.939 512.887 831.755C508.376 838.564 503.062 842.842 496.967 844.475C490.872 846.108 484.132 845.06 476.82 841.419C469.501 837.775 461.668 831.559 453.457 822.966C437.037 805.782 419.253 779.245 401.186 745.318C365.06 677.479 327.907 580.29 298.311 469.836C268.715 359.382 252.296 256.638 249.662 179.824C248.345 141.409 250.478 109.535 256.106 86.4429C258.921 74.8962 262.596 65.5965 267.113 58.7807C271.625 51.9719 276.938 47.6938 283.033 46.0607Z" stroke="black" stroke-opacity="0.72" stroke-width="2"/>
<path opacity="0.310345" d="M318.233 34.9494C324.447 33.8537 331.071 35.4855 338.037 39.7496C345.011 44.0181 352.272 50.8929 359.703 60.1685C374.563 78.7189 389.966 106.704 405.008 142.077C435.084 212.807 463.625 312.864 483.481 425.477C503.338 538.09 510.74 641.875 506.669 718.626C504.633 757.009 499.73 788.576 492.11 811.09C488.301 822.347 483.828 831.291 478.735 837.687C473.647 844.077 467.981 847.876 461.767 848.971C455.553 850.067 448.93 848.435 441.963 844.171C434.989 839.903 427.728 833.028 420.297 823.752C405.437 805.202 390.034 777.216 374.992 741.844C344.916 671.114 316.375 571.057 296.519 458.444C276.662 345.831 269.26 242.046 273.331 165.295C275.367 126.911 280.27 95.3452 287.89 72.8311C291.699 61.5736 296.172 52.6297 301.265 46.2335C306.353 39.8438 312.019 36.0451 318.233 34.9494Z" stroke="black" stroke-opacity="0.72" stroke-width="2"/>
<path opacity="0.344828" d="M353.98 26.9357C360.266 26.3857 366.722 28.5886 373.29 33.4436C379.865 38.3037 386.5 45.7853 393.094 55.6731C406.281 75.4481 419.186 104.67 431.088 141.218C454.885 214.301 474.596 316.465 484.563 430.38C494.529 544.295 492.857 648.329 482.112 724.434C476.739 762.494 469.103 793.512 459.551 815.277C454.774 826.159 449.539 834.68 443.908 840.607C438.282 846.529 432.307 849.82 426.021 850.37C419.735 850.92 413.279 848.717 406.711 843.862C400.135 839.002 393.501 831.52 386.907 821.632C373.72 801.857 360.814 772.636 348.913 736.087C325.116 663.005 305.405 560.841 295.438 446.926C285.472 333.011 287.144 228.976 297.889 152.872C303.262 114.812 310.898 83.793 320.45 62.0286C325.227 51.146 330.462 42.626 336.093 36.698C341.719 30.7761 347.694 27.4856 353.98 26.9357Z" stroke="black" stroke-opacity="0.72" stroke-width="2"/>
<path opacity="0.37931" d="M390.001 22.0541C396.31 22.0541 402.55 24.8113 408.67 30.2203C414.797 35.6349 420.754 43.6663 426.461 54.0912C437.874 74.9402 448.184 105.175 456.854 142.622C474.191 217.5 484.924 320.994 484.924 435.344C484.924 549.694 474.191 653.187 456.854 728.065C448.184 765.512 437.874 795.748 426.461 816.596C420.754 827.021 414.797 835.053 408.67 840.467C402.55 845.876 396.31 848.634 390.001 848.634C383.691 848.634 377.451 845.876 371.331 840.467C365.204 835.053 359.247 827.021 353.54 816.596C342.127 795.748 331.817 765.512 323.147 728.065C305.81 653.187 295.077 549.694 295.077 435.344C295.077 320.994 305.81 217.5 323.147 142.622C331.817 105.175 342.127 74.9402 353.54 54.0912C359.247 43.6663 365.204 35.6349 371.331 30.2203C377.451 24.8113 383.691 22.0541 390.001 22.0541Z" stroke="black" stroke-opacity="0.72" stroke-width="2"/>
<path opacity="0.413793" d="M426.021 20.3182C432.306 20.8682 438.282 24.1586 443.908 30.0805C449.539 36.0085 454.774 44.5285 459.55 55.4112C469.103 77.1755 476.738 108.194 482.112 146.254C492.857 222.359 494.529 326.393 484.562 440.308C474.596 554.223 454.884 656.387 431.087 729.47C419.186 766.018 406.28 795.24 393.094 815.015C386.5 824.903 379.865 832.384 373.29 837.244C366.721 842.099 360.265 844.302 353.979 843.752C347.694 843.202 341.718 839.912 336.093 833.99C330.461 828.062 325.226 819.542 320.45 808.659C310.897 786.895 303.262 755.876 297.888 717.816C287.143 641.712 285.472 537.677 295.438 423.762C305.404 309.847 325.116 207.683 348.913 134.601C360.814 98.0521 373.72 68.8306 386.907 49.0557C393.5 39.1678 400.135 31.6862 406.71 26.8262C413.279 21.9711 419.735 19.7683 426.021 20.3182Z" stroke="black" stroke-opacity="0.72" stroke-width="2"/>
<path opacity="0.448276" d="M461.768 21.7164C467.982 22.8121 473.647 26.6108 478.736 33.0005C483.829 39.3967 488.301 48.3406 492.111 59.5981C499.73 82.1122 504.633 113.678 506.669 152.062C510.74 228.813 503.338 332.598 483.482 445.211C463.625 557.824 435.084 657.881 405.008 728.611C389.967 763.983 374.563 791.969 359.703 810.519C352.273 819.795 345.011 826.67 338.038 830.938C331.071 835.202 324.447 836.834 318.233 835.738C312.019 834.643 306.354 830.844 301.265 824.454C296.172 818.058 291.7 809.114 287.89 797.857C280.271 775.342 275.368 743.776 273.332 705.393C269.261 628.642 276.663 524.857 296.519 412.244C316.376 299.631 344.917 199.574 374.993 128.844C390.034 93.4713 405.438 65.4859 420.298 46.9355C427.728 37.6599 434.99 30.785 441.963 26.5166C448.93 22.2524 455.554 20.6207 461.768 21.7164Z" stroke="black" stroke-opacity="0.72" stroke-width="2"/>
<path opacity="0.482759" d="M496.967 26.2138C503.062 27.8469 508.376 32.1251 512.887 38.9338C517.404 45.7496 521.08 55.0493 523.894 66.596C529.522 89.6885 531.655 121.562 530.338 159.977C527.704 236.791 511.285 339.535 481.689 449.989C452.093 560.443 414.94 657.632 378.814 725.471C360.747 759.398 342.963 785.935 326.543 803.12C318.332 811.712 310.499 817.928 303.18 821.572C295.868 825.213 289.128 826.261 283.033 824.628C276.938 822.995 271.625 818.717 267.113 811.908C262.596 805.093 258.921 795.793 256.106 784.246C250.478 761.154 248.345 729.28 249.662 690.865C252.296 614.051 268.715 511.307 298.311 400.853C327.907 290.399 365.06 193.21 401.186 125.371C419.253 91.4437 437.037 64.9073 453.457 47.7226C461.668 39.1299 469.501 32.9141 476.82 29.2697C484.132 25.629 490.872 24.5807 496.967 26.2138Z" stroke="black" stroke-opacity="0.72" stroke-width="2"/>
<path opacity="0.517241" d="M531.353 33.7475C537.283 35.9056 542.203 40.6305 546.104 47.8066C550.009 54.9901 552.861 64.5747 554.658 76.3227C558.252 99.8179 557.599 131.756 552.939 169.91C543.62 246.202 518.309 347.124 479.199 454.578C440.089 562.033 394.607 655.614 352.705 720.046C331.75 752.27 311.721 777.155 293.866 792.843C284.937 800.688 276.592 806.197 268.983 809.19C261.382 812.179 254.576 812.636 248.647 810.478C242.717 808.32 237.797 803.595 233.896 796.419C229.991 789.235 227.139 779.651 225.342 767.903C221.748 744.408 222.401 712.47 227.061 674.316C236.38 598.024 261.691 497.101 300.801 389.647C339.911 282.193 385.393 188.612 427.295 124.179C448.25 91.9559 468.279 67.0704 486.134 51.3823C495.062 43.5379 503.408 38.0284 511.017 35.0358C518.618 32.0462 525.424 31.5894 531.353 33.7475Z" stroke="black" stroke-opacity="0.72" stroke-width="2"/>
<path opacity="0.551724" d="M564.664 44.2381C570.383 46.9048 574.872 52.0406 578.133 59.5294C581.397 67.0259 583.403 76.8225 584.169 88.6825C585.701 112.401 582.267 144.161 574.3 181.764C558.368 256.953 524.356 355.286 476.03 458.922C427.703 562.559 374.238 651.82 326.881 712.355C303.197 742.63 281.075 765.675 261.92 779.747C252.342 786.783 243.549 791.545 235.708 793.863C227.875 796.178 221.055 796.04 215.336 793.374C209.618 790.707 205.128 785.571 201.867 778.082C198.603 770.586 196.598 760.789 195.831 748.929C194.299 725.21 197.733 693.451 205.7 655.848C221.633 580.658 255.644 482.326 303.97 378.689C352.297 275.053 405.762 185.792 453.119 125.256C476.803 94.9821 498.925 71.937 518.08 57.8647C527.658 50.8283 536.451 46.0672 544.292 43.7491C552.125 41.4333 558.945 41.5715 564.664 44.2381Z" stroke="black" stroke-opacity="0.72" stroke-width="2"/>
<path opacity="0.586207" d="M596.645 57.5784C602.11 60.7333 606.135 66.2408 608.73 73.9854C611.329 81.7378 612.472 91.672 612.202 103.554C611.662 127.316 605.473 158.655 594.258 195.42C571.833 268.935 529.381 363.929 472.206 462.959C415.031 561.99 353.99 646.251 301.537 702.429C275.304 730.524 251.258 751.553 230.95 763.903C220.795 770.077 211.62 774.054 203.607 775.68C195.602 777.304 188.82 776.572 183.355 773.417C177.891 770.262 173.866 764.755 171.27 757.01C168.671 749.258 167.528 739.324 167.798 727.442C168.339 703.68 174.528 672.34 185.742 635.575C208.167 562.06 250.619 467.066 307.794 368.036C364.969 269.006 426.01 184.744 478.464 128.567C504.696 100.472 528.742 79.4423 549.051 67.0931C559.205 60.9182 568.38 56.9416 576.393 55.3157C584.398 53.6914 591.181 54.4235 596.645 57.5784Z" stroke="black" stroke-opacity="0.72" stroke-width="2"/>
<path opacity="0.62069" d="M627.053 73.6436C632.222 77.2628 635.751 83.1002 637.662 91.0415C639.575 98.9909 639.849 108.987 638.544 120.8C635.934 144.425 627.038 175.105 612.661 210.753C583.915 282.034 533.345 372.966 467.756 466.637C402.168 560.307 334.015 638.928 276.865 690.32C248.284 716.022 222.496 734.875 201.189 745.408C190.535 750.674 181.048 753.836 172.924 754.757C164.808 755.677 158.115 754.357 152.946 750.738C147.778 747.119 144.248 741.281 142.337 733.34C140.424 725.391 140.15 715.395 141.455 703.582C144.065 679.957 152.962 649.276 167.338 613.628C196.085 542.348 246.654 451.415 312.243 357.745C377.831 264.075 445.984 185.454 503.134 134.062C531.715 108.36 557.503 89.5062 578.81 78.974C589.465 73.7076 598.951 70.5458 607.076 69.6245C615.191 68.7041 621.884 70.0244 627.053 73.6436Z" stroke="black" stroke-opacity="0.72" stroke-width="2"/>
<path opacity="0.655172" d="M655.657 92.2837C660.491 96.3396 663.498 102.462 664.71 110.54C665.923 118.626 665.324 128.608 662.995 140.262C658.336 163.569 646.799 193.358 629.37 227.617C594.521 296.121 536.218 382.3 462.715 469.898C389.212 557.495 314.467 629.877 253.055 676.092C222.343 699.205 195.01 715.74 172.866 724.375C161.793 728.693 152.067 731.015 143.893 731.225C135.728 731.435 129.176 729.536 124.342 725.48C119.508 721.424 116.501 715.302 115.289 707.224C114.077 699.138 114.675 689.156 117.005 677.502C121.663 654.195 133.2 624.406 150.629 590.147C185.479 521.643 243.781 435.464 317.284 347.866C390.787 260.269 465.533 187.887 526.944 141.671C557.657 118.559 584.989 102.024 607.134 93.3891C618.206 89.0714 627.933 86.7484 636.106 86.5387C644.272 86.3292 650.824 88.2278 655.657 92.2837Z" stroke="black" stroke-opacity="0.72" stroke-width="2"/>
<path opacity="0.689655" d="M682.24 113.335C686.702 117.796 689.164 124.158 689.667 132.311C690.17 140.471 688.704 150.363 685.368 161.77C678.695 184.583 664.606 213.252 644.258 245.862C603.57 311.068 537.979 391.838 457.121 472.696C376.263 553.553 295.493 619.145 230.287 659.833C197.677 680.181 169.008 694.27 146.195 700.943C134.788 704.279 124.896 705.745 116.736 705.242C108.583 704.739 102.222 702.276 97.7598 697.815C93.298 693.353 90.8356 686.991 90.3327 678.839C89.8293 670.678 91.2957 660.786 94.632 649.38C101.304 626.567 115.393 597.897 135.742 565.287C176.429 500.081 242.021 419.312 322.879 338.454C403.737 257.596 484.506 192.004 549.712 151.317C582.322 130.968 610.992 116.879 633.805 110.207C645.211 106.871 655.103 105.404 663.264 105.908C671.416 106.411 677.778 108.873 682.24 113.335Z" stroke="black" stroke-opacity="0.72" stroke-width="2"/>
<path opacity="0.724138" d="M706.599 136.61C710.654 141.443 712.553 147.995 712.344 156.16C712.134 164.334 709.811 174.06 705.493 185.133C696.858 207.277 680.324 234.61 657.211 265.322C610.995 326.734 538.613 401.48 451.016 474.983C363.418 548.485 277.239 606.788 208.735 641.638C174.476 659.066 144.688 670.603 121.38 675.262C109.726 677.591 99.7441 678.19 91.6582 676.977C83.5807 675.766 77.4578 672.758 73.4019 667.925C69.346 663.091 67.4475 656.539 67.657 648.374C67.8667 640.2 70.1897 630.474 74.5074 619.401C83.1425 597.257 99.6768 569.924 122.79 539.212C169.006 477.8 241.387 403.054 328.985 329.552C416.582 256.049 502.761 197.746 571.265 162.896C605.524 145.468 635.313 133.931 658.62 129.272C670.275 126.943 680.256 126.344 688.342 127.557C696.42 128.768 702.543 131.776 706.599 136.61Z" stroke="black" stroke-opacity="0.72" stroke-width="2"/>
<path opacity="0.758621" d="M728.547 161.906C732.166 167.074 733.487 173.767 732.566 181.883C731.645 190.007 728.483 199.494 723.217 210.148C712.684 231.456 693.831 257.243 668.129 285.824C616.737 342.974 538.116 411.127 444.446 476.715C350.776 542.304 259.843 592.874 188.562 621.62C152.914 635.997 122.234 644.894 98.609 647.503C86.7961 648.808 76.8001 648.534 68.8506 646.621C60.9094 644.71 55.072 641.181 51.4528 636.012C47.8336 630.843 46.5133 624.151 47.4337 616.035C48.355 607.911 51.5168 598.424 56.7832 587.77C67.3154 566.462 86.169 540.675 111.871 512.094C163.263 454.944 241.884 386.791 335.554 321.202C429.224 255.614 520.157 205.044 591.438 176.297C627.086 161.921 657.766 153.024 681.391 150.415C693.204 149.11 703.2 149.383 711.149 151.296C719.091 153.207 724.928 156.737 728.547 161.906Z" stroke="black" stroke-opacity="0.72" stroke-width="2"/>
<path opacity="0.793103" d="M747.919 189.007C751.074 194.471 751.806 201.253 750.182 209.258C748.556 217.271 744.58 226.446 738.405 236.601C726.056 256.909 705.026 280.955 676.931 307.188C620.753 359.641 536.492 420.682 437.462 477.857C338.432 535.033 243.438 577.485 169.923 599.909C133.157 611.124 101.818 617.313 78.0559 617.853C66.1742 618.124 56.2401 616.98 48.4876 614.382C40.7431 611.786 35.2356 607.761 32.0806 602.296C28.9257 596.832 28.1937 590.05 29.8179 582.045C31.4438 574.032 35.4204 564.857 41.5953 554.702C53.9446 534.393 74.9739 510.347 103.069 484.115C159.247 431.662 243.508 370.62 342.538 313.445C441.569 256.27 536.562 213.818 610.077 191.394C646.843 180.179 678.182 173.99 701.944 173.449C713.826 173.179 723.76 174.323 731.512 176.921C739.257 179.517 744.765 183.542 747.919 189.007Z" stroke="black" stroke-opacity="0.72" stroke-width="2"/>
<path opacity="0.827586" d="M764.568 217.68C767.235 223.398 767.373 230.218 765.057 238.051C762.739 245.892 757.978 254.686 750.941 264.263C736.869 283.418 713.824 305.54 683.55 329.224C623.014 376.582 533.753 430.047 430.117 478.373C326.48 526.7 228.148 560.711 152.958 576.643C115.355 584.611 83.5959 588.045 59.877 586.512C48.017 585.746 38.2203 583.741 30.7238 580.476C23.235 577.216 18.0992 572.726 15.4326 567.007C12.7659 561.288 12.6278 554.468 14.9435 546.635C17.2616 538.795 22.0228 530.001 29.0592 520.423C43.1314 501.268 66.1765 479.146 96.4508 455.463C156.987 408.105 246.247 354.64 349.884 306.314C453.52 257.987 551.853 223.976 627.042 208.044C664.645 200.076 696.405 196.642 720.124 198.175C731.984 198.941 741.78 200.946 749.277 204.21C756.766 207.471 761.901 211.961 764.568 217.68Z" stroke="black" stroke-opacity="0.72" stroke-width="2"/>
<path opacity="0.862069" d="M778.365 247.683C780.523 253.612 780.066 260.418 777.076 268.019C774.084 275.628 768.574 283.973 760.73 292.902C745.042 310.757 720.156 330.786 687.933 351.741C623.5 393.643 529.919 439.125 422.465 478.235C315.011 517.345 214.089 542.656 137.797 551.975C99.6424 556.635 67.7045 557.288 44.2094 553.694C32.4613 551.897 22.8767 549.045 15.6933 545.14C8.51718 541.239 3.79224 536.319 1.63414 530.389C-0.523962 524.46 -0.0671194 517.654 2.92245 510.053C5.91509 502.444 11.4245 494.098 19.2689 485.17C34.9571 467.315 59.8426 447.286 92.0658 426.331C156.499 384.429 250.08 338.947 357.534 299.837C464.988 260.727 565.91 235.416 642.202 226.097C680.357 221.437 712.294 220.784 735.789 224.378C747.538 226.175 757.122 229.027 764.306 232.932C771.482 236.833 776.207 241.753 778.365 247.683Z" stroke="black" stroke-opacity="0.72" stroke-width="2"/>
<path opacity="0.896552" d="M789.207 278.761C790.84 284.856 789.792 291.597 786.151 298.908C782.507 306.227 776.291 314.061 767.698 322.271C750.514 338.691 723.977 356.475 690.05 374.542C622.211 410.669 525.022 447.821 414.568 477.417C304.114 507.013 201.37 523.433 124.556 526.066C86.1406 527.383 54.2674 525.25 31.1749 519.622C19.6281 516.808 10.3285 513.132 3.51274 508.616C-3.29603 504.104 -7.57416 498.791 -9.20728 492.696C-10.8404 486.601 -9.79208 479.86 -6.1514 472.549C-2.50698 465.229 3.70882 457.396 12.3015 449.186C29.4862 432.765 56.0226 414.981 89.9496 396.914C157.789 360.788 254.978 323.635 365.432 294.039C475.886 264.443 578.63 248.024 655.444 245.391C693.859 244.074 725.733 246.207 748.825 251.835C760.372 254.649 769.671 258.325 776.487 262.841C783.296 267.353 787.574 272.666 789.207 278.761Z" stroke="black" stroke-opacity="0.72" stroke-width="2"/>
<path opacity="0.931035" d="M797.011 310.653C798.107 316.867 796.475 323.491 792.211 330.458C787.943 337.431 781.068 344.693 771.792 352.123C753.242 366.983 725.256 382.387 689.884 397.428C619.154 427.504 519.097 456.045 406.484 475.902C293.871 495.758 190.086 503.16 113.335 499.089C74.9512 497.053 43.3852 492.15 20.8711 484.531C9.61356 480.721 0.669673 476.249 -5.72652 471.155C-12.1162 466.067 -15.9149 460.401 -17.0106 454.187C-18.1063 447.973 -16.4745 441.35 -12.2104 434.383C-7.94197 427.41 -1.06712 420.148 8.20848 412.718C26.7589 397.858 54.7443 382.454 90.1169 367.413C160.847 337.337 260.904 308.796 373.517 288.939C486.13 269.082 589.915 261.68 666.666 265.752C705.049 267.788 736.615 272.691 759.13 280.31C770.387 284.12 779.331 288.592 785.727 293.685C792.117 298.773 795.916 304.439 797.011 310.653Z" stroke="black" stroke-opacity="0.72" stroke-width="2"/>
<path opacity="0.965517" d="M801.717 343.093C802.267 349.379 800.064 355.835 795.209 362.404C790.349 368.979 782.868 375.614 772.98 382.207C753.205 395.394 723.983 408.3 687.435 420.201C614.352 443.998 512.188 463.71 398.273 473.676C284.358 483.642 180.324 481.971 104.219 471.226C66.1591 465.852 35.1405 458.216 13.3762 448.664C2.49353 443.887 -6.02653 438.653 -11.9545 433.021C-17.8763 427.396 -21.1668 421.42 -21.7168 415.134C-22.2667 408.848 -20.0639 402.392 -15.2088 395.824C-10.3488 389.249 -2.86721 382.614 7.02069 376.02C26.7956 362.834 56.0171 349.928 92.566 338.027C165.648 314.229 267.812 294.518 381.727 284.552C495.642 274.585 599.677 276.257 675.781 287.002C713.841 292.376 744.86 300.011 766.624 309.564C777.507 314.34 786.027 319.575 791.955 325.206C797.877 330.832 801.167 336.807 801.717 343.093Z" stroke="black" stroke-opacity="0.72" stroke-width="2"/>
<path d="M803.29 375.805C803.29 382.115 800.533 388.355 795.124 394.475C789.71 400.602 781.678 406.559 771.253 412.266C750.404 423.679 720.169 433.989 682.722 442.659C607.844 459.996 504.351 470.729 390.001 470.729C275.65 470.729 172.157 459.996 97.2792 442.659C59.8321 433.989 29.597 423.679 8.74805 412.266C-1.67689 406.559 -9.70827 400.602 -15.1229 394.475C-20.5319 388.355 -23.2891 382.115 -23.2891 375.805C-23.2891 369.496 -20.5319 363.256 -15.1229 357.136C-9.70827 351.009 -1.67689 345.052 8.74805 339.345C29.597 327.932 59.8321 317.622 97.2792 308.952C172.157 291.615 275.65 280.882 390.001 280.882C504.351 280.882 607.844 291.615 682.722 308.952C720.169 317.622 750.404 327.932 771.253 339.345C781.678 345.052 789.71 351.009 795.124 357.136C800.533 363.256 803.29 369.496 803.29 375.805Z" stroke="black" stroke-opacity="0.72" stroke-width="2"/>
</g>
</svg>
