<svg width="494" height="551" viewBox="0 0 494 551" fill="none" xmlns="http://www.w3.org/2000/svg">
<g opacity="0.1">
<path opacity="0.010101" d="M52.6626 280.714C46.7942 274.637 45.5062 265.473 49.4723 258.014L151.689 65.7715C155.655 58.3125 163.973 54.2555 172.293 55.7224L386.713 93.5304C395.032 94.9974 401.461 101.655 402.637 110.02L432.939 325.629C434.114 333.995 429.769 342.166 422.177 345.869L226.484 441.315C218.891 445.018 209.777 443.411 203.909 437.334L52.6626 280.714Z" stroke="white"/>
<path opacity="0.020202" d="M50.0878 277.982C44.3263 271.803 43.1985 262.618 47.2941 255.229L152.632 65.1939C156.728 57.8052 165.115 53.894 173.408 55.5059L386.693 96.9644C394.986 98.5763 401.298 105.345 402.327 113.73L428.807 329.387C429.836 337.772 425.349 345.867 417.693 349.437L220.773 441.262C213.117 444.832 204.032 443.067 198.271 436.888L50.0878 277.982Z" stroke="white"/>
<path opacity="0.030303" d="M47.5756 275.252C41.9228 268.974 40.9555 259.77 45.1794 252.454L153.593 64.6759C157.817 57.3598 166.271 53.5956 174.535 55.352L386.623 100.433C394.887 102.189 401.079 109.067 401.962 117.468L424.627 333.108C425.51 341.509 420.883 349.524 413.165 352.96L215.084 441.151C207.366 444.588 198.314 442.663 192.661 436.385L47.5756 275.252Z" stroke="white"/>
<path opacity="0.040404" d="M45.124 272.526C39.5817 266.15 38.7751 256.931 43.1261 249.689L154.568 64.2184C158.919 56.9772 167.438 53.3611 175.67 55.2615L386.5 103.936C394.732 105.836 400.803 112.821 401.54 121.236L420.398 336.789C421.134 345.205 416.368 353.138 408.592 356.439L209.416 440.984C201.64 444.285 192.622 442.203 187.08 435.827L45.124 272.526Z" stroke="white"/>
<path opacity="0.050505" d="M42.7349 269.804C37.3047 263.333 36.6591 254.101 41.1358 246.936L155.559 63.8205C160.036 56.6563 168.617 53.1894 176.814 55.2332L386.326 107.47C394.523 109.514 400.472 116.604 401.061 125.031L416.123 340.431C416.713 348.859 411.808 356.707 403.976 359.872L203.772 440.759C195.94 443.924 186.96 441.685 181.53 435.213L42.7349 269.804Z" stroke="white"/>
<path opacity="0.0606061" d="M40.4062 267.088C35.0897 260.522 34.6054 251.28 39.2064 244.195L156.563 63.482C161.164 56.397 169.804 53.0805 177.964 55.267L386.098 111.036C394.258 113.223 400.082 120.415 400.524 128.851L411.801 344.032C412.243 352.468 407.203 360.23 399.316 363.257L198.152 440.477C190.265 443.504 181.326 441.109 176.01 434.544L40.4062 267.088Z" stroke="white"/>
<path opacity="0.0707071" d="M38.1397 264.378C32.9386 257.721 32.6157 248.472 37.3397 241.468L157.58 63.2037C162.304 56.2 171.001 53.0348 179.122 55.3633L385.817 114.632C393.938 116.961 399.636 124.254 399.931 132.696L407.435 347.591C407.73 356.034 402.555 363.706 394.616 366.596L192.558 440.139C184.62 443.028 175.724 440.477 170.523 433.82L38.1397 264.378Z" stroke="white"/>
<path opacity="0.0808081" d="M35.9335 261.676C30.8494 254.93 30.6878 245.676 35.5334 238.756L158.609 62.9866C163.454 56.0665 172.205 53.0535 180.283 55.5234L385.483 118.259C393.561 120.729 399.131 128.12 399.278 136.567L403.023 351.109C403.171 359.556 397.862 367.137 389.875 369.887L186.99 439.746C179.002 442.496 170.152 439.791 165.068 433.044L35.9335 261.676Z" stroke="white"/>
<path opacity="0.0909091" d="M33.7883 258.983C28.8227 252.149 28.8227 242.894 33.7883 236.06L159.648 62.8292C164.613 55.9947 173.415 53.1349 181.449 55.7454L385.094 121.914C393.129 124.524 398.568 132.011 398.568 140.459V354.584C398.568 363.032 393.129 370.519 385.094 373.13L181.449 439.298C173.415 441.908 164.613 439.049 159.648 432.214L33.7883 258.983Z" stroke="white"/>
<path opacity="0.10101" d="M31.7023 256.3C26.8567 249.38 27.0183 240.126 32.1023 233.38L160.695 62.7315C165.779 55.9847 174.629 53.2789 182.617 56.0292L384.65 125.595C392.638 128.345 397.946 135.926 397.798 144.373L394.069 358.015C393.922 366.461 388.352 373.852 380.274 376.322L175.936 438.795C167.857 441.265 159.106 438.252 154.261 431.332L31.7023 256.3Z" stroke="white"/>
<path opacity="0.111111" d="M29.6772 253.628C24.9532 246.624 25.2762 237.375 30.4772 230.718L161.751 62.6955C166.952 56.0385 175.848 53.4876 183.787 56.3769L384.152 129.304C392.09 132.193 397.265 139.866 396.971 148.308L389.529 361.403C389.234 369.845 383.537 377.138 375.416 379.467L170.452 438.239C162.331 440.568 153.635 437.403 148.911 430.399L29.6772 253.628Z" stroke="white"/>
<path opacity="0.121212" d="M27.7112 250.967C23.1101 243.882 23.5944 234.64 28.9109 228.075L162.814 62.7189C168.13 56.1537 177.069 53.7584 184.956 56.7858L383.598 133.037C391.484 136.065 396.525 143.826 396.083 152.263L384.947 364.745C384.505 373.181 378.681 380.373 370.521 382.56L164.997 437.63C156.837 439.816 148.197 436.5 143.596 429.415L27.7112 250.967Z" stroke="white"/>
<path opacity="0.131313" d="M25.805 248.321C21.3283 241.156 21.9739 231.924 27.4041 225.453L163.883 62.8036C169.313 56.3321 178.293 54.0932 186.126 57.2578L382.989 136.796C390.821 139.96 395.726 147.809 395.136 156.236L380.325 368.042C379.736 376.47 373.787 383.559 365.59 385.603L159.574 436.968C151.377 439.012 142.796 435.545 138.319 428.381L25.805 248.321Z" stroke="white"/>
<path opacity="0.141414" d="M23.9578 245.688C19.6068 238.446 20.4134 229.227 25.9558 222.851L164.957 62.9484C170.499 56.5727 179.517 54.4909 187.293 57.7917L382.323 140.577C390.1 143.878 394.866 151.811 394.13 160.227L375.664 371.293C374.928 379.709 368.856 386.694 360.625 388.594L154.182 436.255C145.95 438.156 137.432 434.539 133.081 427.298L23.9578 245.688Z" stroke="white"/>
<path opacity="0.151515" d="M22.1686 243.069C17.9446 235.753 18.912 226.549 24.5647 220.271L166.034 63.1535C171.687 56.8755 180.739 54.9514 188.457 58.3874L381.601 144.381C389.319 147.817 393.946 155.832 393.063 164.233L370.963 374.498C370.08 382.899 363.888 389.777 355.624 391.533L148.822 435.491C140.558 437.247 132.104 433.483 127.88 426.167L22.1686 243.069Z" stroke="white"/>
<path opacity="0.161616" d="M20.4382 240.467C16.3426 233.078 17.4704 223.893 23.2319 217.714L167.115 63.4189C172.876 57.2405 181.961 55.4746 189.617 59.0449L380.823 148.206C388.479 151.776 392.966 159.87 391.937 168.255L366.226 377.655C365.196 386.04 358.884 392.808 350.592 394.42L143.496 434.676C135.203 436.288 126.815 432.376 122.72 424.988L20.4382 240.467Z" stroke="white"/>
<path opacity="0.171717" d="M18.7657 237.883C14.7997 230.424 16.0877 221.259 21.9561 215.182L168.197 63.7453C174.065 57.6683 183.179 56.0613 190.772 59.7646L379.988 152.051C387.581 155.755 391.926 163.926 390.75 172.292L361.451 380.765C360.276 389.131 353.847 395.788 345.527 397.255L138.203 433.812C129.884 435.279 121.566 431.222 117.6 423.763L18.7657 237.883Z" stroke="white"/>
<path opacity="0.181818" d="M17.1503 235.316C13.315 227.789 14.7627 218.648 20.7363 212.674L169.279 64.1312C175.253 58.1577 184.394 56.7099 191.921 60.5451L379.096 155.916C386.623 159.751 390.825 167.997 389.503 176.341L356.641 383.826C355.319 392.17 348.775 398.714 340.431 400.036L132.946 432.898C124.602 434.22 116.356 430.018 112.521 422.491L17.1503 235.316Z" stroke="white"/>
<path opacity="0.191919" d="M15.5918 232.768C11.8884 225.175 13.4955 216.061 19.5724 210.193L170.361 64.5775C176.438 58.7091 185.603 57.4211 193.062 61.3871L378.147 159.798C385.606 163.764 389.663 172.082 388.196 180.402L351.795 386.839C350.328 395.158 343.671 401.587 335.305 402.763L127.724 431.937C119.358 433.112 111.187 428.767 107.484 421.175L15.5918 232.768Z" stroke="white"/>
<path opacity="0.20202" d="M14.0903 230.239C10.52 222.583 12.2859 213.498 18.4643 207.737L171.442 65.0825C177.621 59.321 186.806 58.1931 194.195 62.2888L377.14 163.697C384.529 167.793 388.44 176.18 386.828 184.473L346.916 389.801C345.304 398.093 338.536 404.405 330.151 405.435L122.539 430.926C114.154 431.956 106.06 427.469 102.49 419.813L14.0903 230.239Z" stroke="white"/>
<path opacity="0.212121" d="M12.6439 227.733C9.20784 220.015 11.132 210.963 17.41 205.31L172.52 65.6489C178.798 59.9962 188.002 59.0288 195.318 63.2527L376.075 167.613C383.391 171.837 387.155 180.292 385.399 188.555L342.004 392.714C340.247 400.978 333.37 407.17 324.968 408.053L117.391 429.871C108.989 430.754 100.974 426.126 97.5383 418.409L12.6439 227.733Z" stroke="white"/>
<path opacity="0.222222" d="M11.2537 225.247C7.95284 217.471 10.0347 208.454 16.4104 202.911L173.594 66.2736C179.97 60.7313 189.189 59.9247 196.43 64.2756L374.953 171.543C382.194 175.894 385.81 184.413 383.91 192.644L337.059 395.576C335.159 403.808 328.174 409.879 319.759 410.616L112.281 428.768C103.865 429.504 95.9323 424.738 92.6314 416.961L11.2537 225.247Z" stroke="white"/>
<path opacity="0.232323" d="M9.91875 222.785C6.75411 214.953 8.993 205.973 15.4645 200.543L174.664 66.9587C181.135 61.5284 190.367 60.8829 197.532 65.3596L373.773 175.487C380.937 179.964 384.404 188.545 382.36 196.742L332.084 398.389C330.04 406.586 322.951 412.534 314.524 413.124L107.21 427.62C98.7825 428.21 90.9341 423.306 87.7695 415.473L9.91875 222.785Z" stroke="white"/>
<path opacity="0.242424" d="M8.63817 220.347C5.61071 212.461 8.00597 203.521 14.5712 198.205L175.728 67.7028C182.293 62.3864 191.535 61.902 198.62 66.5031L372.535 179.445C379.62 184.046 382.936 192.686 380.75 200.846L327.079 401.149C324.892 409.31 317.7 415.134 309.264 415.576L102.178 426.429C93.7418 426.871 85.9803 421.83 82.9528 413.944L8.63817 220.347Z" stroke="white"/>
<path opacity="0.252525" d="M7.41105 217.933C4.52169 209.995 7.07261 201.099 13.7297 195.898L176.784 68.5053C183.441 63.3043 192.69 62.9813 199.694 67.7053L371.238 183.413C378.241 188.137 381.407 196.834 379.078 204.954L322.043 403.858C319.715 411.979 312.422 417.676 303.979 417.971L97.1862 425.192C88.7434 425.487 81.071 420.312 78.1816 412.374L7.41105 217.933Z" stroke="white"/>
<path opacity="0.262626" d="M6.23754 215.545C3.48717 207.557 6.19295 198.707 12.9398 193.623L177.833 69.3666C184.58 64.2825 193.833 64.121 200.753 68.9665L369.883 187.392C376.803 192.238 379.816 200.988 377.346 209.067L316.98 406.514C314.51 414.593 307.119 420.163 298.673 420.31L92.2352 423.913C83.7886 424.061 76.2076 418.753 73.4573 410.765L6.23754 215.545Z" stroke="white"/>
<path opacity="0.272727" d="M5.11775 213.183C2.5072 205.149 5.36703 196.347 12.2015 191.382L178.874 70.287C185.709 65.3214 194.963 65.3214 201.798 70.287L368.47 191.382C375.305 196.347 378.165 205.149 375.554 213.183L311.891 409.119C309.28 417.153 301.793 422.593 293.345 422.593L87.3266 422.593C78.8787 422.593 71.3916 417.153 68.781 409.119L5.11775 213.183Z" stroke="white"/>
<path opacity="0.282828" d="M4.04987 210.849C1.57994 202.77 4.59294 194.02 11.5131 189.174L179.905 71.2651C186.825 66.4196 196.078 66.5811 202.825 71.6652L366.999 195.379C373.746 200.463 376.452 209.314 373.701 217.301L306.775 411.67C304.024 419.657 296.443 424.966 287.997 424.818L82.4598 421.231C74.0132 421.083 66.6221 415.514 64.1522 407.435L4.04987 210.849Z" stroke="white"/>
<path opacity="0.292929" d="M3.03307 208.543C0.704511 200.423 3.86977 191.726 10.8734 187.002L180.924 72.3017C187.928 67.5777 197.176 67.9007 203.834 73.1017L365.469 199.385C372.126 204.586 374.677 213.482 371.787 221.421L301.633 414.168C298.743 422.107 291.071 427.282 282.628 426.987L77.6353 419.829C69.1925 419.534 61.8998 413.836 59.5712 405.715L3.03307 208.543Z" stroke="white"/>
<path opacity="0.30303" d="M2.06752 206.266C-0.118958 198.106 3.1976 189.466 10.2826 184.865L181.931 73.395C189.016 68.794 198.258 69.2783 204.823 74.5948L363.88 203.396C370.445 208.713 372.841 217.652 369.813 225.539L296.467 416.612C293.439 424.499 285.678 429.54 277.241 429.098L72.8544 418.386C64.418 417.944 57.2259 412.12 55.0394 403.96L2.06752 206.266Z" stroke="white"/>
<path opacity="0.313131" d="M1.15243 204.02C-0.891305 195.823 2.57553 187.242 9.73977 182.765L182.926 74.5466C190.09 70.0699 199.322 70.7155 205.794 76.1457L362.233 207.414C368.705 212.844 370.943 221.824 367.779 229.657L291.278 419.004C288.113 426.836 280.265 431.741 271.837 431.151L68.1176 416.906C59.6902 416.316 52.6008 410.368 50.5571 402.171L1.15243 204.02Z" stroke="white"/>
<path opacity="0.323232" d="M0.288001 201.803C-1.61237 193.571 2.0037 185.052 9.24497 180.701L183.907 75.7537C191.149 71.4027 200.368 72.2093 206.744 77.7516L360.529 211.435C366.904 216.977 368.986 225.994 365.685 233.771L286.067 421.339C282.766 429.116 274.834 433.882 266.418 433.146L63.4263 415.386C55.0105 414.65 48.026 408.578 46.1256 400.347L0.288001 201.803Z" stroke="white"/>
<path opacity="0.333333" d="M-0.528494 199.618C-2.28492 191.355 1.47927 182.901 8.79538 178.677L184.873 77.0183C192.189 72.7944 201.393 73.7617 207.671 79.4145L358.764 215.46C365.042 221.113 366.967 230.165 363.53 237.883L280.834 423.621C277.398 431.339 269.383 435.966 260.982 435.083L58.7789 413.831C50.3773 412.948 43.4998 406.755 41.7434 398.492L-0.528494 199.618Z" stroke="white"/>
<path opacity="0.343434" d="M-1.29585 197.466C-2.90779 189.173 1.00337 180.786 8.39208 176.69L185.823 78.3385C193.212 74.2429 202.397 75.3707 208.576 81.1322L356.943 219.487C363.121 225.248 364.887 234.333 361.317 241.989L275.582 425.848C272.011 433.505 263.917 437.991 255.532 436.962L54.1781 412.239C45.7932 411.209 39.0248 404.898 37.4128 396.605L-1.29585 197.466Z" stroke="white"/>
<path opacity="0.353535" d="M-2.01481 195.347C-3.48177 187.028 0.575178 178.71 8.03424 174.744L186.757 79.7152C194.216 75.7492 203.38 77.0372 209.457 82.9056L355.063 223.515C361.14 229.384 362.747 238.498 359.044 246.091L270.311 428.021C266.607 435.614 258.436 439.959 250.07 438.783L49.6242 410.612C41.2585 409.436 34.6013 403.008 33.1343 394.688L-2.01481 195.347Z" stroke="white"/>
<path opacity="0.363636" d="M-2.68804 193.262C-4.00959 184.918 0.191919 176.672 7.71906 172.837L187.672 81.1468C195.199 77.3115 204.339 78.7593 210.313 84.7328L353.124 227.544C359.098 233.518 360.546 242.658 356.71 250.185L265.02 430.138C261.185 437.665 252.939 441.867 244.595 440.545L45.1158 408.951C36.7719 407.629 30.2279 401.085 28.9063 392.741L-2.68804 193.262Z" stroke="white"/>
<path opacity="0.373737" d="M-3.31427 191.212C-4.49 182.847 -0.145223 174.675 7.44771 170.972L188.568 82.6336C196.161 78.9303 205.275 80.5373 211.144 86.6142L351.128 231.572C356.996 237.649 358.284 246.814 354.318 254.273L259.713 432.2C255.747 439.659 247.429 443.716 239.109 442.249L40.6553 407.256C32.3357 405.789 25.9069 399.132 24.7312 390.766L-3.31427 191.212Z" stroke="white"/>
<path opacity="0.383838" d="M-3.89424 189.197C-4.92378 180.812 -0.43706 172.718 7.21935 169.148L189.446 84.1741C197.102 80.6039 206.187 82.3697 211.948 88.5481L349.074 235.598C354.836 241.776 355.964 250.962 351.868 258.35L254.39 434.206C250.294 441.594 241.907 445.506 233.614 443.894L36.2433 405.529C27.9506 403.917 21.6389 397.148 20.6094 388.763L-3.89424 189.197Z" stroke="white"/>
<path opacity="0.393939" d="M-4.42955 187.219C-5.3126 178.817 -0.685294 170.803 7.03226 167.367L190.303 85.7693C198.02 82.3332 207.073 84.2574 212.725 90.5354L346.963 239.621C352.615 245.899 353.583 255.103 349.359 262.419L249.052 436.156C244.828 443.472 236.373 447.237 228.11 445.48L31.8793 403.77C23.616 402.014 17.4234 395.136 16.5404 386.734L-4.42955 187.219Z" stroke="white"/>
<path opacity="0.40404" d="M-4.92087 185.277C-5.65716 176.861 -0.890685 168.928 6.88566 165.627L191.138 87.4169C198.914 84.116 207.931 86.1978 213.474 92.5735L344.793 243.639C350.336 250.015 351.142 259.234 346.791 266.476L243.699 438.05C239.348 445.291 230.829 448.907 222.598 447.007L27.5639 401.98C19.3325 400.079 13.2609 393.095 12.5246 384.679L-4.92087 185.277Z" stroke="white"/>
<path opacity="0.414141" d="M-5.36788 183.373C-5.95717 174.946 -1.05298 167.097 6.77979 163.933L191.951 89.1186C199.784 85.954 208.764 88.1929 214.194 94.6643L342.567 247.654C347.998 254.125 348.643 263.358 344.166 270.522L238.334 439.889C233.858 447.053 225.277 450.52 217.08 448.476L23.2985 400.161C15.1015 398.117 9.15275 391.028 8.56345 382.6L-5.36788 183.373Z" stroke="white"/>
<path opacity="0.424242" d="M-5.77313 181.508C-6.21526 173.071 -1.17484 165.31 6.71197 162.282L192.74 90.8726C200.627 87.8452 209.566 90.2404 214.883 96.8057L340.283 251.662C345.6 258.228 346.084 267.47 341.483 274.555L232.957 441.671C228.356 448.756 219.716 452.073 211.555 449.886L19.0818 398.313C10.9217 396.126 5.09764 388.934 4.6555 380.498L-5.77313 181.508Z" stroke="white"/>
<path opacity="0.434343" d="M-6.13625 179.681C-6.43109 171.238 -1.25598 163.566 6.68246 160.676L193.506 92.6781C201.444 89.7888 210.34 92.3397 215.541 98.9967L337.943 255.664C343.144 262.321 343.467 271.57 338.743 278.573L227.568 443.397C222.844 450.4 214.147 453.566 206.027 451.237L14.9154 396.437C6.79473 394.108 1.09704 386.816 0.802204 378.373L-6.13625 179.681Z" stroke="white"/>
<path opacity="0.444444" d="M-6.45787 177.894C-6.60532 169.447 -1.29709 161.867 6.69057 159.116L194.246 94.5355C202.234 91.7852 211.084 94.4909 216.168 101.238L335.546 259.657C340.63 266.404 340.791 275.657 335.946 282.577L222.17 445.067C217.324 451.987 208.574 455 200.495 452.53L10.7998 394.534C2.72104 392.064 -2.84853 384.673 -2.99598 376.227L-6.45787 177.894Z" stroke="white"/>
<path opacity="0.454545" d="M-6.73951 176.148C-6.73951 167.7 -1.29979 160.213 6.73465 157.602L194.961 96.444C202.995 93.8335 211.797 96.6933 216.762 103.528L333.092 263.642C338.058 270.477 338.058 279.731 333.092 286.566L216.762 446.68C211.797 453.515 202.995 456.375 194.961 453.764L6.73464 392.606C-1.2998 389.995 -6.73951 382.508 -6.73952 374.06L-6.73951 176.148Z" stroke="white"/>
<path opacity="0.464646" d="M-6.98074 174.442C-6.83331 165.996 -1.26374 158.605 6.81503 156.135L195.649 98.4026C203.728 95.9326 212.478 98.9456 217.324 105.866L330.583 267.617C335.429 274.537 335.267 283.791 330.183 290.537L211.348 448.238C206.263 454.984 197.413 457.69 189.426 454.94L2.72151 390.652C-5.26615 387.902 -10.5744 380.321 -10.4269 371.874L-6.98074 174.442Z" stroke="white"/>
<path opacity="0.474747" d="M-7.18406 172.778C-6.88925 164.335 -1.19154 157.042 6.92912 154.714L196.309 100.41C204.43 98.0816 213.126 101.247 217.85 108.25L328.018 271.581C332.742 278.584 332.419 287.833 327.218 294.49L205.925 449.738C200.724 456.395 191.828 458.946 183.889 456.056L-1.24095 388.674C-9.17939 385.785 -14.3545 378.112 -14.0597 369.67L-7.18406 172.778Z" stroke="white"/>
<path opacity="0.484848" d="M-7.34904 171.156C-6.90691 162.72 -1.0828 155.528 7.07726 153.341L196.941 102.467C205.101 100.281 213.741 103.597 218.342 110.682L325.397 275.533C329.998 282.618 329.514 291.86 324.197 298.425L200.497 451.182C195.181 457.747 186.241 460.142 178.355 457.115L-5.15116 386.674C-13.038 383.646 -18.0784 375.884 -17.6363 367.448L-7.34904 171.156Z" stroke="white"/>
<path opacity="0.494949" d="M-7.47712 169.576C-6.88783 161.149 -0.93908 154.06 7.25789 152.016L197.544 104.572C205.741 102.529 214.321 105.995 218.798 113.16L322.721 279.471C327.198 286.636 326.552 295.868 321.122 302.339L195.064 452.569C189.634 459.04 180.654 461.279 172.821 458.115L-9.00948 384.65C-16.8423 381.485 -21.7464 373.637 -21.1571 365.21L-7.47712 169.576Z" stroke="white"/>
<path opacity="0.50505" d="M-7.56882 168.041C-6.83254 159.626 -0.760968 152.641 7.47042 150.741L198.116 106.727C206.348 104.826 214.867 108.442 219.218 115.684L319.99 283.397C324.341 290.639 323.535 299.858 317.992 306.234L189.627 453.901C184.085 460.277 175.068 462.358 167.291 459.058L-12.8152 382.607C-20.5916 379.306 -25.358 371.373 -24.6218 362.957L-7.56882 168.041Z" stroke="white"/>
<path opacity="0.515152" d="M-7.62556 166.55C-6.74251 158.148 -0.549973 151.27 7.71333 149.514L198.658 108.928C206.921 107.171 215.376 110.935 219.6 118.251L317.205 287.308C321.429 294.625 320.461 303.829 314.809 310.107L184.187 455.176C178.535 461.454 169.482 463.378 161.765 459.942L-16.5688 380.543C-24.2863 377.107 -28.9136 369.092 -28.0306 360.691L-7.62556 166.55Z" stroke="white"/>
<path opacity="0.525253" d="M-7.64781 165.102C-6.61827 156.717 -0.306641 149.948 7.98606 148.337L199.168 111.175C207.46 109.563 215.848 113.474 219.944 120.863L314.365 291.203C318.461 298.592 317.333 307.778 311.571 313.956L178.745 456.395C172.984 462.573 163.899 464.339 156.243 460.769L-20.2695 378.46C-27.9259 374.889 -32.4126 366.795 -31.3831 358.41L-7.64781 165.102Z" stroke="white"/>
<path opacity="0.535354" d="M-7.63502 163.699C-6.4593 155.334 -0.0305015 148.676 8.28907 147.21L199.647 113.468C207.966 112.001 216.284 116.058 220.25 123.517L311.473 295.082C315.439 302.541 314.151 311.706 308.283 317.783L173.304 457.557C167.436 463.634 158.322 465.241 150.729 461.538L-23.9157 376.358C-31.5086 372.655 -35.8534 364.484 -34.6777 356.118L-7.63502 163.699Z" stroke="white"/>
<path opacity="0.545455" d="M-7.59052 162.342C-6.26898 153.998 0.275018 147.454 8.61892 146.133L200.092 115.806C208.435 114.485 216.681 118.686 220.517 126.214L308.527 298.943C312.362 306.471 310.914 315.611 304.941 321.585L167.862 458.664C161.888 464.638 152.747 466.085 145.22 462.25L-27.5097 374.24C-35.0368 370.405 -39.2384 362.159 -37.9168 353.815L-7.59052 162.342Z" stroke="white"/>
<path opacity="0.555556" d="M-7.51475 161.031C-6.04779 152.711 0.609422 146.283 8.97512 145.107L200.502 118.189C208.868 117.014 217.039 121.359 220.742 128.951L305.527 302.786C309.23 310.379 307.623 319.493 301.546 325.362L162.42 459.715C156.343 465.583 147.178 466.871 139.719 462.905L-31.0508 372.105C-38.5099 368.139 -42.5668 359.821 -41.0999 351.502L-7.51475 161.031Z" stroke="white"/>
<path opacity="0.565657" d="M-7.40609 159.766C-5.79415 151.474 0.974238 145.162 9.35918 144.132L200.88 120.617C209.264 119.587 217.359 124.074 220.929 131.73L302.477 306.61C306.047 314.267 304.281 323.351 298.103 329.113L156.982 460.71C150.803 466.472 141.618 467.599 134.229 463.504L-34.5364 369.956C-41.9251 365.86 -45.8363 357.472 -44.2243 349.18L-7.40609 159.766Z" stroke="white"/>
<path opacity="0.575758" d="M-7.26884 158.548C-5.51242 150.285 1.3651 144.092 9.76673 143.209L201.22 123.086C209.622 122.203 217.637 126.831 221.073 134.548L299.373 310.413C302.809 318.131 300.885 327.183 294.607 332.836L151.545 461.649C145.267 467.302 136.063 468.269 128.747 464.045L-37.9697 367.791C-45.2858 363.567 -49.05 355.113 -47.2935 346.849L-7.26884 158.548Z" stroke="white"/>
<path opacity="0.585859" d="M-7.10136 157.377C-5.20099 149.146 1.78355 143.074 10.1993 142.338L201.526 125.599C209.942 124.863 217.875 129.629 221.176 137.406L296.219 314.196C299.52 321.972 297.438 330.99 291.062 336.532L146.114 462.533C139.738 468.076 130.519 468.882 123.278 464.531L-41.348 365.614C-48.5893 361.263 -52.2054 352.744 -50.305 344.513L-7.10136 157.377Z" stroke="white"/>
<path opacity="0.59596" d="M-6.90692 156.254C-4.86319 148.057 2.22624 142.108 10.6536 141.519L201.794 128.153C210.222 127.564 218.07 132.468 221.235 140.301L293.012 317.956C296.177 325.789 293.938 334.769 287.466 340.199L140.687 463.362C134.215 468.792 124.983 469.438 117.819 464.961L-44.6737 363.424C-51.8379 358.948 -55.3047 350.367 -53.261 342.17L-6.90692 156.254Z" stroke="white"/>
<path opacity="0.606061" d="M-6.68389 155.179C-4.49742 147.019 2.69477 141.195 11.1311 140.753L202.026 130.748C210.463 130.306 218.224 135.347 221.252 143.234L289.756 321.694C292.784 329.581 290.389 338.52 283.823 343.837L135.266 464.136C128.701 469.452 119.459 469.937 112.374 465.336L-47.9439 361.224C-55.0289 356.623 -58.3455 347.983 -56.159 339.823L-6.68389 155.179Z" stroke="white"/>
<path opacity="0.616162" d="M-6.43449 154.152C-4.10593 146.032 3.1868 140.334 11.6296 140.039L202.22 133.383C210.663 133.089 218.335 138.264 221.225 146.202L286.45 325.408C289.34 333.346 286.789 342.243 280.132 347.444L129.853 464.854C123.196 470.056 113.947 470.379 106.943 465.654L-51.1601 359.013C-58.1637 354.289 -61.329 345.592 -59.0004 337.471L-6.43449 154.152Z" stroke="white"/>
<path opacity="0.626263" d="M-6.15901 153.175C-3.68909 145.096 3.70197 139.527 12.1486 139.379L202.376 136.059C210.823 135.911 218.404 141.219 221.154 149.207L283.096 329.098C285.846 337.086 283.14 345.936 276.393 351.02L124.448 465.519C117.701 470.603 108.448 470.765 101.528 465.919L-54.3214 356.793C-61.2416 351.947 -64.2546 343.197 -61.7846 335.118L-6.15901 153.175Z" stroke="white"/>
<path opacity="0.636364" d="M-5.85964 152.247C-3.24909 144.212 4.23805 138.772 12.686 138.772L202.492 138.772C210.94 138.772 218.427 144.212 221.038 152.247L279.691 332.763C282.302 340.797 279.442 349.599 272.607 354.565L119.051 466.13C112.216 471.095 102.962 471.095 96.1272 466.13L-57.4292 354.565C-64.2637 349.599 -67.1235 340.797 -64.513 332.763L-5.85964 152.247Z" stroke="white"/>
<path opacity="0.646465" d="M-5.5366 151.367C-2.78624 143.38 4.7947 138.071 13.2413 138.219L202.568 141.523C211.015 141.671 218.406 147.24 220.876 155.319L276.238 336.401C278.708 344.48 275.695 353.23 268.775 358.076L113.664 466.686C106.744 471.531 97.4905 471.37 90.7437 466.286L-60.4826 352.329C-67.2294 347.245 -69.9352 338.394 -67.1848 330.407L-5.5366 151.367Z" stroke="white"/>
<path opacity="0.656566" d="M-5.19011 150.538C-2.30076 142.6 5.37166 137.425 13.8144 137.719L202.605 144.312C211.048 144.607 218.34 150.305 220.669 158.425L272.738 340.013C275.067 348.134 271.902 356.83 264.898 361.554L108.288 467.189C101.285 471.913 92.0356 471.59 85.3786 466.389L-63.481 350.087C-70.138 344.886 -72.689 335.99 -69.7996 328.051L-5.19011 150.538Z" stroke="white"/>
<path opacity="0.666667" d="M-4.82237 149.758C-1.79491 141.871 5.96667 136.831 14.403 137.273L202.6 147.136C211.036 147.578 218.228 153.402 220.415 161.562L269.191 343.596C271.377 351.756 268.061 360.396 260.976 364.997L102.924 467.637C95.8388 472.238 86.5968 471.754 80.0316 466.437L-66.4256 347.839C-72.9908 342.522 -75.3861 333.583 -72.3586 325.696L-4.82237 149.758Z" stroke="white"/>
<path opacity="0.676768" d="M-4.43349 149.03C-1.26886 141.197 6.57951 136.293 15.0068 136.882L202.554 149.996C210.981 150.586 218.07 156.534 220.114 164.731L265.597 347.152C267.64 355.349 264.174 363.929 257.009 368.406L97.5722 468.033C90.408 472.51 81.1759 471.865 74.7044 466.434L-69.3156 345.587C-75.7871 340.157 -78.026 331.177 -74.8613 323.345L-4.43349 149.03Z" stroke="white"/>
<path opacity="0.686869" d="M-4.02464 148.351C-0.723784 140.575 7.20896 135.808 15.6247 136.545L202.465 152.891C210.881 153.627 217.866 159.699 219.766 167.93L261.957 350.678C263.857 358.909 260.241 367.428 253 371.779L92.2342 468.377C84.993 472.728 75.7736 471.921 69.3978 466.379L-72.1513 343.332C-78.527 337.79 -80.6089 328.772 -77.308 320.996L-4.02464 148.351Z" stroke="white"/>
<path opacity="0.69697" d="M-3.59596 147.723C-0.159899 140.006 7.85483 135.378 16.2565 136.261L202.336 155.819C210.737 156.702 217.615 162.895 219.371 171.158L258.272 354.174C260.029 362.437 256.265 370.891 248.948 375.115L86.9115 468.667C79.5954 472.891 70.3915 471.924 64.1134 466.271L-74.932 341.074C-81.21 335.421 -83.1342 326.369 -79.6981 318.651L-3.59596 147.723Z" stroke="white"/>
<path opacity="0.707071" d="M-3.15051 147.148C0.419722 139.491 8.514 135.004 16.8989 136.034L202.161 158.781C210.546 159.811 217.315 166.122 218.927 174.415L254.542 357.64C256.154 365.932 252.243 374.32 244.854 378.415L81.6029 468.907C74.2142 473.003 65.0286 471.875 58.8501 466.113L-77.6598 338.816C-83.8382 333.054 -85.604 323.97 -82.0338 316.313L-3.15051 147.148Z" stroke="white"/>
<path opacity="0.717172" d="M-2.68739 146.622C1.01592 139.029 9.18726 134.684 17.553 135.86L201.944 161.774C210.31 162.95 216.967 169.379 218.434 177.699L250.768 361.073C252.235 369.393 248.178 377.711 240.719 381.677L76.3111 469.094C68.8521 473.06 59.6875 471.772 53.6106 465.904L-80.333 336.556C-86.4099 330.687 -88.0169 321.573 -84.3136 313.981L-2.68739 146.622Z" stroke="white"/>
<path opacity="0.727273" d="M-2.20769 146.149C1.62756 138.622 9.87348 134.42 18.2174 135.742L201.684 164.8C210.027 166.121 216.571 172.665 217.893 181.009L246.951 364.475C248.273 372.819 244.071 381.065 236.544 384.9L71.0368 469.231C63.5097 473.066 54.369 471.618 48.3955 465.645L-82.9518 334.297C-88.9254 328.324 -90.3731 319.183 -86.5378 311.656L-2.20769 146.149Z" stroke="white"/>
<path opacity="0.737374" d="M-1.71345 145.727C2.2526 138.268 10.5706 134.211 18.8902 135.678L201.378 167.855C209.697 169.322 216.126 175.979 217.302 184.345L243.091 367.844C244.267 376.21 239.922 384.381 232.329 388.085L65.78 469.316C58.1871 473.019 49.073 471.412 43.2046 465.335L-85.5175 332.04C-91.3859 325.963 -92.6739 316.798 -88.7078 309.339L-1.71345 145.727Z" stroke="white"/>
<path opacity="0.747475" d="M-1.20465 145.357C2.89097 137.968 11.2785 134.057 19.5712 135.669L201.027 170.941C209.32 172.552 215.632 179.321 216.661 187.706L239.189 371.18C240.219 379.565 235.732 387.66 228.075 391.23L60.5423 469.352C52.8859 472.922 43.8013 471.156 38.0398 464.978L-88.0292 329.785C-93.7907 323.607 -94.9185 314.421 -90.8229 307.033L-1.20465 145.357Z" stroke="white"/>
<path opacity="0.757576" d="M-0.682373 145.038C3.54158 137.722 11.9961 133.958 20.2594 135.714L200.632 174.054C208.895 175.81 215.088 182.688 215.971 191.089L235.246 374.481C236.129 382.883 231.502 390.898 223.784 394.334L55.3245 469.337C47.607 472.773 38.5546 470.849 32.9018 464.571L-90.4872 327.533C-96.14 321.255 -97.1073 312.051 -92.8834 304.735L-0.682373 145.038Z" stroke="white"/>
<path opacity="0.767677" d="M-0.147566 144.772C4.20343 137.531 12.7224 133.915 20.9537 135.815L200.191 177.195C208.422 179.096 214.494 186.08 215.23 194.496L231.262 377.748C231.999 386.163 227.232 394.096 219.456 397.397L50.1275 469.273C42.3512 472.574 33.3337 470.492 27.7914 464.116L-92.8918 325.286C-98.4341 318.91 -99.2407 309.691 -94.8897 302.45L-0.147566 144.772Z" stroke="white"/>
<path opacity="0.777778" d="M0.398801 144.559C4.87551 137.394 13.4562 133.928 21.6532 135.971L199.704 180.364C207.901 182.408 213.849 189.498 214.439 197.925L227.239 380.979C227.828 389.406 222.924 397.255 215.092 400.42L44.9521 469.16C37.1193 472.325 28.1396 470.086 22.7093 463.615L-95.243 323.044C-100.673 316.573 -101.319 307.341 -96.8421 300.177L0.398801 144.559Z" stroke="white"/>
<path opacity="0.787879" d="M0.954789 144.397C5.55584 137.312 14.1958 133.996 22.3558 136.182L199.17 183.559C207.33 185.746 213.154 192.938 213.596 201.374L223.176 384.175C223.618 392.611 218.578 400.372 210.691 403.4L39.798 469C31.9112 472.027 22.972 469.632 17.6555 463.066L-97.5422 320.809C-102.859 314.244 -103.343 305.002 -98.742 297.917L0.954789 144.397Z" stroke="white"/>
<path opacity="0.79798" d="M1.52039 144.287C6.2444 137.284 14.9409 134.119 23.0616 136.447L198.589 186.779C206.709 189.107 212.407 196.4 212.702 204.843L219.074 387.332C219.369 395.775 214.194 403.447 206.256 406.337L34.6672 468.79C26.7288 471.679 17.8327 469.128 12.6316 462.471L-99.7886 318.58C-104.99 311.923 -105.313 302.674 -100.589 295.67L1.52039 144.287Z" stroke="white"/>
<path opacity="0.808081" d="M2.09475 144.231C6.94027 137.311 15.6907 134.298 23.7695 136.768L197.961 190.023C206.039 192.493 211.609 199.884 211.756 208.331L214.935 390.453C215.083 398.9 209.775 406.481 201.787 409.231L29.5605 468.534C21.5728 471.284 12.7226 468.578 7.63849 461.831L-101.982 316.36C-107.066 309.613 -107.228 300.36 -102.382 293.44L2.09475 144.231Z" stroke="white"/>
<path opacity="0.818182" d="M2.67697 144.226C7.64253 137.391 16.4442 134.531 24.4786 137.142L197.286 193.29C205.32 195.901 210.76 203.388 210.76 211.836L210.76 393.536C210.76 401.984 205.32 409.471 197.286 412.082L24.4786 468.23C16.4442 470.84 7.64253 467.981 2.67697 461.146L-104.124 314.148C-109.089 307.313 -109.089 298.059 -104.124 291.224L2.67697 144.226Z" stroke="white"/>
<path opacity="0.828283" d="M3.26615 144.274C8.35022 137.527 17.2004 134.821 25.1881 137.571L196.563 196.58C204.551 199.331 209.859 206.912 209.711 215.358L206.548 396.58C206.401 405.027 200.831 412.418 192.752 414.888L19.4225 467.88C11.3437 470.35 2.59335 467.337 -2.25218 460.417L-106.213 311.946C-111.058 305.026 -110.897 295.773 -105.813 289.026L3.26615 144.274Z" stroke="white"/>
<path opacity="0.838384" d="M3.86038 144.373C9.06144 137.716 17.9575 135.165 25.896 138.055L195.792 199.892C203.73 202.781 208.905 210.454 208.61 218.896L202.301 399.585C202.006 408.028 196.308 415.321 188.187 417.649L14.3921 467.485C6.27142 469.813 -2.4251 466.648 -7.14911 459.644L-108.251 309.755C-112.975 302.751 -112.652 293.502 -107.451 286.845L3.86038 144.373Z" stroke="white"/>
<path opacity="0.848485" d="M4.45894 144.526C9.77538 137.961 18.7146 135.566 26.6015 138.593L194.972 203.224C202.858 206.252 207.899 214.013 207.457 222.45L198.018 402.551C197.576 410.988 191.752 418.18 183.592 420.366L9.38807 467.044C1.22801 469.231 -7.41192 465.914 -12.013 458.829L-110.238 307.576C-114.839 300.491 -114.355 291.249 -109.038 284.684L4.45894 144.526Z" stroke="white"/>
<path opacity="0.858586" d="M5.06189 144.731C10.4921 138.259 19.4718 136.02 27.3046 139.185L194.104 206.576C201.936 209.741 206.841 217.589 206.251 226.016L193.702 405.477C193.113 413.904 187.164 420.994 178.967 423.037L4.41236 466.559C-3.78461 468.602 -12.3653 465.136 -16.8421 457.971L-112.174 305.409C-116.65 298.244 -116.005 289.012 -110.575 282.541L5.06189 144.731Z" stroke="white"/>
<path opacity="0.868687" d="M5.66743 144.988C11.2098 138.612 20.2272 136.53 28.0035 139.831L193.187 209.947C200.963 213.248 205.729 221.181 204.993 229.596L189.353 408.362C188.617 416.777 182.545 423.762 174.314 425.662L-0.535125 466.029C-8.76652 467.93 -17.2855 464.314 -21.6365 457.072L-114.059 303.255C-118.41 296.014 -117.604 286.795 -112.061 280.419L5.66743 144.988Z" stroke="white"/>
<path opacity="0.878788" d="M6.27582 145.297C11.9286 139.019 20.9809 137.095 28.6985 140.531L192.221 213.336C199.939 216.772 204.566 224.787 203.683 233.189L184.973 411.206C184.09 419.608 177.897 426.485 169.634 428.242L-5.4526 465.457C-13.7159 467.214 -22.1704 463.45 -26.3944 456.133L-115.893 301.117C-120.117 293.801 -119.15 284.597 -113.497 278.319L6.27582 145.297Z" stroke="white"/>
<path opacity="0.888889" d="M6.88427 145.659C12.6457 139.48 21.7303 137.714 29.3867 141.285L191.206 216.742C198.862 220.312 203.349 228.407 202.319 236.791L180.56 414.008C179.53 422.393 173.219 429.161 164.926 430.773L-10.3411 464.842C-18.6338 466.454 -27.0214 462.543 -31.117 455.154L-117.679 298.993C-121.774 291.604 -120.646 282.418 -114.885 276.24L6.88427 145.659Z" stroke="white"/>
<path opacity="0.89899" d="M7.49296 146.072C13.3614 139.995 22.4754 138.388 30.0683 142.091L190.141 220.164C197.734 223.867 202.079 232.039 200.903 240.404L176.117 416.768C174.941 425.134 168.512 431.791 160.193 433.258L-15.1989 464.184C-23.5184 465.651 -31.8365 461.594 -35.8025 454.135L-119.414 296.885C-123.38 289.426 -122.092 280.261 -116.224 274.184L7.49296 146.072Z" stroke="white"/>
<path opacity="0.909091" d="M8.10123 146.538C14.0748 140.565 23.2155 139.117 30.7426 142.952L189.027 223.602C196.554 227.437 200.756 235.683 199.434 244.027L171.644 419.487C170.323 427.831 163.779 434.375 155.435 435.696L-20.025 463.487C-28.3689 464.808 -36.6149 460.607 -40.4501 453.079L-121.1 294.795C-124.935 287.268 -123.488 278.127 -117.514 272.154L8.10123 146.538Z" stroke="white"/>
<path opacity="0.919192" d="M8.70637 147.055C14.7833 141.186 23.9478 139.898 31.4069 143.864L187.862 227.053C195.321 231.019 199.378 239.337 197.911 247.657L167.141 422.161C165.674 430.481 159.017 436.909 150.651 438.085L-24.8206 462.746C-33.1863 463.922 -41.3576 459.577 -45.061 451.984L-122.739 292.721C-126.442 285.128 -124.835 276.014 -118.758 270.146L8.70637 147.055Z" stroke="white"/>
<path opacity="0.929293" d="M9.30954 147.623C15.488 141.862 24.6736 140.734 32.0623 144.83L186.648 230.518C194.037 234.614 197.948 243.001 196.336 251.294L162.611 424.793C160.999 433.085 154.231 439.397 145.846 440.427L-29.5828 461.966C-37.9678 462.996 -46.062 458.509 -49.6323 450.853L-124.328 290.666C-127.899 283.01 -126.133 273.925 -119.954 268.164L9.30954 147.623Z" stroke="white"/>
<path opacity="0.939394" d="M9.9092 148.244C16.1872 142.591 25.3911 141.624 32.7072 145.848L185.384 233.995C192.7 238.219 196.464 246.674 194.708 254.937L158.054 427.381C156.297 435.644 149.42 441.836 141.018 442.719L-34.3118 461.147C-42.7134 462.03 -50.7282 457.403 -54.1643 449.686L-125.87 288.631C-129.306 280.914 -127.382 271.861 -121.104 266.209L9.9092 148.244Z" stroke="white"/>
<path opacity="0.949495" d="M10.5046 148.916C16.8803 143.374 26.0997 142.567 33.341 146.918L184.07 237.485C191.311 241.836 194.927 250.355 193.027 258.586L153.47 429.925C151.57 438.156 144.585 444.228 136.17 444.964L-39.0067 460.29C-47.4225 461.026 -55.3552 456.26 -58.6561 448.484L-127.364 286.617C-130.665 278.841 -128.583 269.823 -122.208 264.281L10.5046 148.916Z" stroke="white"/>
<path opacity="0.959596" d="M11.0941 149.638C17.5656 144.208 26.7976 143.562 33.9618 148.039L182.705 240.984C189.87 245.461 193.336 254.042 191.293 262.238L148.861 432.424C146.817 440.621 139.728 446.569 131.3 447.159L-43.6676 459.394C-52.095 459.983 -59.9433 455.079 -63.108 447.246L-128.812 284.622C-131.977 276.79 -129.738 267.81 -123.266 262.38L11.0941 149.638Z" stroke="white"/>
<path opacity="0.969697" d="M11.677 150.412C18.2423 145.095 27.4842 144.611 34.5692 149.212L181.29 244.494C188.375 249.095 191.692 257.735 189.505 265.895L144.226 434.878C142.04 443.038 134.848 448.863 126.411 449.305L-48.2937 458.461C-56.7301 458.903 -64.4916 453.862 -67.5191 445.975L-130.214 282.65C-133.241 274.764 -130.846 265.824 -124.281 260.508L11.677 150.412Z" stroke="white"/>
<path opacity="0.979798" d="M12.2538 151.235C18.9108 146.034 28.1598 145.711 35.1634 150.435L179.826 248.011C186.829 252.735 189.995 261.431 187.666 269.552L139.569 437.287C137.24 445.407 129.948 451.105 121.505 451.4L-52.8832 457.49C-61.326 457.784 -68.9984 452.609 -71.8877 444.671L-131.568 280.7C-134.458 272.761 -131.907 263.865 -125.25 258.664L12.2538 151.235Z" stroke="white"/>
<path opacity="0.989899" d="M12.8218 152.109C19.5685 147.025 28.8217 146.864 35.7419 151.709L178.31 251.537C185.231 256.382 188.244 265.133 185.774 273.211L134.888 439.651C132.418 447.729 125.027 453.299 116.58 453.446L-57.4371 456.484C-65.8838 456.631 -73.4647 451.323 -76.2151 443.335L-132.878 278.773C-135.629 270.786 -132.923 261.936 -126.176 256.851L12.8218 152.109Z" stroke="white"/>
<path d="M13.3803 153.034C20.2148 148.068 29.4695 148.068 36.304 153.034L176.744 255.069C183.579 260.035 186.439 268.837 183.828 276.871L130.185 441.969C127.574 450.003 120.087 455.443 111.639 455.443H-61.9547C-70.4026 455.443 -77.8898 450.003 -80.5003 441.969L-134.144 276.871C-136.754 268.837 -133.894 260.035 -127.06 255.069L13.3803 153.034Z" stroke="white"/>
</g>
</svg>
