<svg width="357" height="554" viewBox="0 0 357 554" fill="none" xmlns="http://www.w3.org/2000/svg">
<g opacity="0.2">
<rect opacity="0.0344828" x="47.6459" y="429.836" width="351.948" height="424.244" transform="rotate(-84 47.6459 429.836)" stroke="white" stroke-width="2"/>
<rect opacity="0.0689655" x="39.9615" y="417.624" width="351.948" height="424.244" transform="rotate(-81 39.9615 417.624)" stroke="white" stroke-width="2"/>
<rect opacity="0.103448" x="32.9263" y="405.025" width="351.948" height="424.244" transform="rotate(-78 32.9263 405.025)" stroke="white" stroke-width="2"/>
<rect opacity="0.137931" x="26.5607" y="392.077" width="351.948" height="424.244" transform="rotate(-75 26.5607 392.077)" stroke="white" stroke-width="2"/>
<rect opacity="0.172414" x="20.8812" y="378.811" width="351.948" height="424.244" transform="rotate(-72 20.8812 378.811)" stroke="white" stroke-width="2"/>
<rect opacity="0.206897" x="15.9043" y="365.268" width="351.948" height="424.244" transform="rotate(-69 15.9043 365.268)" stroke="white" stroke-width="2"/>
<rect opacity="0.241379" x="11.6416" y="351.481" width="351.948" height="424.244" transform="rotate(-66 11.6416 351.481)" stroke="white" stroke-width="2"/>
<rect opacity="0.275862" x="8.10769" y="337.493" width="351.948" height="424.244" transform="rotate(-63 8.10769 337.493)" stroke="white" stroke-width="2"/>
<rect opacity="0.310345" x="5.31036" y="323.336" width="351.948" height="424.244" transform="rotate(-60 5.31036 323.336)" stroke="white" stroke-width="2"/>
<rect opacity="0.344828" x="3.25733" y="309.054" width="351.948" height="424.244" transform="rotate(-57 3.25733 309.054)" stroke="white" stroke-width="2"/>
<rect opacity="0.37931" x="1.9554" y="294.683" width="351.948" height="424.244" transform="rotate(-54 1.9554 294.683)" stroke="white" stroke-width="2"/>
<rect opacity="0.413793" x="1.40647" y="280.264" width="351.948" height="424.244" transform="rotate(-51 1.40647 280.264)" stroke="white" stroke-width="2"/>
<rect opacity="0.448276" x="1.61345" y="265.836" width="351.948" height="424.244" transform="rotate(-48 1.61345 265.836)" stroke="white" stroke-width="2"/>
<rect opacity="0.482759" x="2.57535" y="251.439" width="351.948" height="424.244" transform="rotate(-45 2.57535 251.439)" stroke="white" stroke-width="2"/>
<rect opacity="0.517241" x="4.28825" y="237.111" width="351.948" height="424.244" transform="rotate(-42 4.28825 237.111)" stroke="white" stroke-width="2"/>
<rect opacity="0.551724" x="6.75022" y="222.894" width="351.948" height="424.244" transform="rotate(-39 6.75022 222.894)" stroke="white" stroke-width="2"/>
<rect opacity="0.586207" x="9.95247" y="208.824" width="351.948" height="424.244" transform="rotate(-36 9.95247 208.824)" stroke="white" stroke-width="2"/>
<rect opacity="0.62069" x="13.8862" y="194.941" width="351.948" height="424.244" transform="rotate(-33 13.8862 194.941)" stroke="white" stroke-width="2"/>
<rect opacity="0.655172" x="18.5418" y="181.284" width="351.948" height="424.244" transform="rotate(-30 18.5418 181.284)" stroke="white" stroke-width="2"/>
<rect opacity="0.689655" x="23.9046" y="167.888" width="351.948" height="424.244" transform="rotate(-27 23.9046 167.888)" stroke="white" stroke-width="2"/>
<rect opacity="0.724138" x="29.9629" y="154.791" width="351.948" height="424.244" transform="rotate(-24 29.9629 154.791)" stroke="white" stroke-width="2"/>
<rect opacity="0.758621" x="36.6962" y="142.03" width="351.948" height="424.244" transform="rotate(-21 36.6962 142.03)" stroke="white" stroke-width="2"/>
<rect opacity="0.793103" x="44.0892" y="129.639" width="351.948" height="424.244" transform="rotate(-18 44.0892 129.639)" stroke="white" stroke-width="2"/>
<rect opacity="0.827586" x="52.1212" y="117.652" width="351.948" height="424.244" transform="rotate(-15 52.1212 117.652)" stroke="white" stroke-width="2"/>
<rect opacity="0.862069" x="60.7691" y="106.101" width="351.948" height="424.244" transform="rotate(-12 60.7691 106.101)" stroke="white" stroke-width="2"/>
<rect opacity="0.896552" x="70.0094" y="95.0173" width="351.948" height="424.244" transform="rotate(-9 70.0094 95.0173)" stroke="white" stroke-width="2"/>
<rect opacity="0.931035" x="79.8168" y="84.4343" width="351.948" height="424.244" transform="rotate(-6 79.8168 84.4343)" stroke="white" stroke-width="2"/>
<rect opacity="0.965517" x="90.1652" y="74.377" width="351.948" height="424.244" transform="rotate(-3 90.1652 74.377)" stroke="white" stroke-width="2"/>
<rect x="101.026" y="64.8772" width="351.948" height="424.244" stroke="white" stroke-width="2"/>
</g>
</svg>
